M48
; DRILL file {KiCad (6.0.8)} date Fri Apr 21 01:28:30 2023
; FORMAT={-:-/ absolute / inch / decimal}
; #@! TF.CreationDate,2023-04-21T01:28:30+02:00
; #@! TF.GenerationSoftware,Kicad,Pcbnew,(6.0.8)
; #@! TF.FileFunction,Plated,1,2,PTH
FMAT,2
INCH
; #@! TA.AperFunction,Plated,PTH,ViaDrill
T1C0.0157
; #@! TA.AperFunction,Plated,PTH,ComponentDrill
T2C0.0315
; #@! TA.AperFunction,Plated,PTH,ComponentDrill
T3C0.0394
; #@! TA.AperFunction,Plated,PTH,ComponentDrill
T4C0.0433
; #@! TA.AperFunction,Plated,PTH,ComponentDrill
T5C0.0472
; #@! TA.AperFunction,Plated,PTH,ComponentDrill
T6C0.0591
; #@! TA.AperFunction,Plated,PTH,ComponentDrill
T7C0.0925
; #@! TA.AperFunction,Plated,PTH,ComponentDrill
T8C0.1378
%
G90
G05
T1
X5.89Y-1.18
X6.69Y-1.18
X7.49Y-1.18
T2
X4.17Y-1.72
X4.17Y-1.82
X4.17Y-1.92
X4.17Y-2.02
X4.47Y-1.72
X4.47Y-1.82
X4.47Y-1.92
X4.47Y-2.02
X4.5365Y-4.6085
X4.5365Y-5.0555
X4.7072Y-3.243
X4.7072Y-3.643
X4.7072Y-3.833
X4.7072Y-4.233
X4.76Y-2.1008
X4.76Y-2.24
X4.7718Y-1.7151
X4.7718Y-1.8151
X4.7718Y-1.9151
X4.7754Y-2.6288
X4.7754Y-3.0288
X4.979Y-3.243
X4.979Y-3.643
X4.979Y-3.833
X4.979Y-4.233
X5.0718Y-1.7151
X5.0718Y-1.8151
X5.0718Y-1.9151
X5.1365Y-4.6085
X5.1365Y-5.0555
X5.16Y-2.1008
X5.16Y-2.24
X5.2764Y-1.4673
X5.2764Y-1.8673
X6.0787Y-1.4673
X6.0787Y-1.8673
X6.881Y-1.4673
X6.881Y-1.8673
X7.6834Y-1.4673
X7.6834Y-1.8673
T3
X4.1091Y-3.3
X4.1091Y-3.4
X4.1091Y-3.5
X4.1091Y-3.6
X4.1091Y-3.7
X4.1091Y-3.8
X4.1091Y-3.9
X4.1091Y-4.0
X4.1121Y-2.2856
X4.1121Y-2.3856
X4.1121Y-2.4856
X4.1121Y-2.5856
X4.1121Y-2.6856
X4.1121Y-2.7856
X4.1121Y-2.8856
X4.1121Y-2.9856
X4.29Y-3.3
X4.29Y-3.4
X4.29Y-3.5
X4.29Y-3.6
X4.29Y-3.7
X4.29Y-3.8
X4.29Y-3.9
X4.29Y-4.0
X4.29Y-4.1
X4.29Y-4.2
X4.29Y-4.3
X4.29Y-4.4
X4.29Y-4.5
X4.29Y-4.6
X4.29Y-4.7
X4.29Y-4.8
X4.5211Y-3.3
X4.5211Y-3.4
X4.5211Y-3.5
X4.5211Y-3.6
X4.5211Y-3.7
X4.5211Y-3.8
X4.5211Y-3.9
X4.5211Y-4.0
X4.5211Y-4.1
X4.5211Y-4.2
T4
X4.249Y-1.248
X4.249Y-1.448
X4.5854Y-4.83
X4.7354Y-4.83
X4.94Y-4.83
X5.09Y-4.83
X8.509Y-1.888
X8.509Y-2.088
X8.509Y-2.288
X8.509Y-2.488
X8.509Y-2.688
X8.509Y-2.888
T5
X5.4909Y-2.0807
X5.4909Y-3.1807
X5.4909Y-3.4852
X5.4909Y-5.8852
X6.2933Y-2.0807
X6.2933Y-3.1807
X6.2933Y-3.4852
X6.2933Y-5.8852
X7.0956Y-2.0807
X7.0956Y-3.1807
X7.0956Y-3.4852
X7.0956Y-5.8852
X7.898Y-2.0807
X7.898Y-3.1807
X7.898Y-3.4852
X7.898Y-5.8852
T6
X5.2764Y-1.168
X5.4909Y-1.168
X5.7055Y-1.168
X6.0787Y-1.168
X6.2933Y-1.168
X6.5078Y-1.168
X6.881Y-1.168
X7.0956Y-1.168
X7.3102Y-1.168
X7.6834Y-1.168
X7.898Y-1.168
X8.1125Y-1.168
T7
X8.4766Y-3.3693
X8.4766Y-3.9598
X8.4766Y-4.5504
X8.4766Y-5.1409
T8
X8.4766Y-3.6646
X8.4766Y-4.8457
T0
M30
