%TF.GenerationSoftware,KiCad,Pcbnew,(6.0.8)*%
%TF.CreationDate,2023-04-21T01:28:30+02:00*%
%TF.ProjectId,load_pcb,6c6f6164-5f70-4636-922e-6b696361645f,rev?*%
%TF.SameCoordinates,Original*%
%TF.FileFunction,Soldermask,Top*%
%TF.FilePolarity,Negative*%
%FSLAX46Y46*%
G04 Gerber Fmt 4.6, Leading zero omitted, Abs format (unit mm)*
G04 Created by KiCad (PCBNEW (6.0.8)) date 2023-04-21 01:28:30*
%MOMM*%
%LPD*%
G01*
G04 APERTURE LIST*
G04 Aperture macros list*
%AMRoundRect*
0 Rectangle with rounded corners*
0 $1 Rounding radius*
0 $2 $3 $4 $5 $6 $7 $8 $9 X,Y pos of 4 corners*
0 Add a 4 corners polygon primitive as box body*
4,1,4,$2,$3,$4,$5,$6,$7,$8,$9,$2,$3,0*
0 Add four circle primitives for the rounded corners*
1,1,$1+$1,$2,$3*
1,1,$1+$1,$4,$5*
1,1,$1+$1,$6,$7*
1,1,$1+$1,$8,$9*
0 Add four rect primitives between the rounded corners*
20,1,$1+$1,$2,$3,$4,$5,0*
20,1,$1+$1,$4,$5,$6,$7,0*
20,1,$1+$1,$6,$7,$8,$9,0*
20,1,$1+$1,$8,$9,$2,$3,0*%
G04 Aperture macros list end*
%ADD10R,1.700000X1.700000*%
%ADD11O,1.700000X1.700000*%
%ADD12C,1.600000*%
%ADD13O,1.600000X1.600000*%
%ADD14RoundRect,0.250000X-1.025000X0.875000X-1.025000X-0.875000X1.025000X-0.875000X1.025000X0.875000X0*%
%ADD15R,2.500000X2.500000*%
%ADD16C,2.500000*%
%ADD17C,5.000000*%
%ADD18C,4.000000*%
%ADD19R,2.500000X4.500000*%
%ADD20O,2.500000X4.500000*%
%ADD21RoundRect,0.250000X0.412500X0.650000X-0.412500X0.650000X-0.412500X-0.650000X0.412500X-0.650000X0*%
%ADD22C,2.400000*%
%ADD23O,2.400000X2.400000*%
%ADD24R,2.200000X2.200000*%
%ADD25O,2.200000X2.200000*%
%ADD26R,2.400000X1.600000*%
%ADD27O,2.400000X1.600000*%
%ADD28R,1.650000X1.650000*%
%ADD29C,1.650000*%
%ADD30RoundRect,0.250000X-0.650000X0.412500X-0.650000X-0.412500X0.650000X-0.412500X0.650000X0.412500X0*%
%ADD31R,1.600000X1.600000*%
G04 APERTURE END LIST*
D10*
%TO.C,J1*%
X108966000Y-83820000D03*
D11*
X108966000Y-86360000D03*
X108966000Y-88900000D03*
X108966000Y-91440000D03*
X108966000Y-93980000D03*
X108966000Y-96520000D03*
X108966000Y-99060000D03*
X108966000Y-101600000D03*
X108966000Y-104140000D03*
X108966000Y-106680000D03*
X108966000Y-109220000D03*
X108966000Y-111760000D03*
X108966000Y-114300000D03*
X108966000Y-116840000D03*
X108966000Y-119380000D03*
X108966000Y-121920000D03*
%TD*%
D10*
%TO.C,J3*%
X114836000Y-83820000D03*
D11*
X114836000Y-86360000D03*
X114836000Y-88900000D03*
X114836000Y-91440000D03*
X114836000Y-93980000D03*
X114836000Y-96520000D03*
X114836000Y-99060000D03*
X114836000Y-101600000D03*
X114836000Y-104140000D03*
X114836000Y-106680000D03*
%TD*%
D12*
%TO.C,R16*%
X126466000Y-82372000D03*
D13*
X126466000Y-92532000D03*
%TD*%
D14*
%TO.C,C1*%
X118872000Y-31598000D03*
X118872000Y-37998000D03*
%TD*%
D15*
%TO.C,P4*%
X216128000Y-73354000D03*
D16*
X216128000Y-68274000D03*
%TD*%
D17*
%TO.C,F1*%
X215306000Y-123080000D03*
D18*
X215306000Y-130580000D03*
X215306000Y-115580000D03*
X215306000Y-85580000D03*
D17*
X215306000Y-93080000D03*
D18*
X215306000Y-100580000D03*
%TD*%
D19*
%TO.C,Q3*%
X154399333Y-29668000D03*
D20*
X159849333Y-29668000D03*
X165299333Y-29668000D03*
%TD*%
D21*
%TO.C,C3*%
X124421000Y-61976000D03*
X121296000Y-61976000D03*
%TD*%
D12*
%TO.C,R2*%
X134020000Y-47430000D03*
D13*
X134020000Y-37270000D03*
%TD*%
D22*
%TO.C,R6*%
X159849333Y-52850000D03*
D23*
X159849333Y-80790000D03*
%TD*%
D15*
%TO.C,P2*%
X216128000Y-53034000D03*
D16*
X216128000Y-47954000D03*
%TD*%
D22*
%TO.C,R9*%
X180228666Y-52850000D03*
D23*
X180228666Y-80790000D03*
%TD*%
D12*
%TO.C,R20*%
X130466365Y-128410365D03*
D13*
X115226365Y-128410365D03*
%TD*%
D24*
%TO.C,D2*%
X116470000Y-122682000D03*
D25*
X120280000Y-122682000D03*
%TD*%
D22*
%TO.C,R12*%
X200608000Y-52850000D03*
D23*
X200608000Y-80790000D03*
%TD*%
D19*
%TO.C,Q2*%
X134020000Y-29668000D03*
D20*
X139470000Y-29668000D03*
X144920000Y-29668000D03*
%TD*%
D10*
%TO.C,J4*%
X104448000Y-58054000D03*
D11*
X104448000Y-60594000D03*
X104448000Y-63134000D03*
X104448000Y-65674000D03*
X104448000Y-68214000D03*
X104448000Y-70754000D03*
X104448000Y-73294000D03*
X104448000Y-75834000D03*
%TD*%
D19*
%TO.C,Q4*%
X174778666Y-29668000D03*
D20*
X180228666Y-29668000D03*
X185678666Y-29668000D03*
%TD*%
D26*
%TO.C,U1*%
X105918000Y-43688000D03*
D27*
X105918000Y-46228000D03*
X105918000Y-48768000D03*
X105918000Y-51308000D03*
X113538000Y-51308000D03*
X113538000Y-48768000D03*
X113538000Y-46228000D03*
X113538000Y-43688000D03*
%TD*%
D12*
%TO.C,R5*%
X154399333Y-47430000D03*
D13*
X154399333Y-37270000D03*
%TD*%
D22*
%TO.C,R7*%
X139470000Y-88524000D03*
D23*
X139470000Y-149484000D03*
%TD*%
D22*
%TO.C,R4*%
X180228666Y-88524000D03*
D23*
X180228666Y-149484000D03*
%TD*%
D12*
%TO.C,R17*%
X119562000Y-92532000D03*
D13*
X119562000Y-82372000D03*
%TD*%
D12*
%TO.C,R21*%
X120904000Y-56896000D03*
D13*
X131064000Y-56896000D03*
%TD*%
D10*
%TO.C,J2*%
X104372000Y-101600000D03*
D11*
X104372000Y-99060000D03*
X104372000Y-96520000D03*
X104372000Y-93980000D03*
X104372000Y-91440000D03*
X104372000Y-88900000D03*
X104372000Y-86360000D03*
X104372000Y-83820000D03*
%TD*%
D22*
%TO.C,R13*%
X159849333Y-88524000D03*
D23*
X159849333Y-149484000D03*
%TD*%
D12*
%TO.C,R1*%
X131064000Y-53360000D03*
D13*
X120904000Y-53360000D03*
%TD*%
D28*
%TO.C,P1*%
X107924000Y-31698000D03*
D29*
X107924000Y-36778000D03*
%TD*%
D30*
%TO.C,C2*%
X125432000Y-31598000D03*
X125432000Y-34723000D03*
%TD*%
D12*
%TO.C,R18*%
X121296000Y-66772000D03*
D13*
X121296000Y-76932000D03*
%TD*%
D22*
%TO.C,R10*%
X200608000Y-88524000D03*
D23*
X200608000Y-149484000D03*
%TD*%
D12*
%TO.C,R19*%
X115226365Y-117056365D03*
D13*
X130466365Y-117056365D03*
%TD*%
D31*
%TO.C,Q1*%
X121204000Y-43564000D03*
D13*
X121204000Y-46104000D03*
X121204000Y-48644000D03*
X128824000Y-48644000D03*
X128824000Y-46104000D03*
X128824000Y-43564000D03*
%TD*%
D12*
%TO.C,R14*%
X126466000Y-97358000D03*
D13*
X126466000Y-107518000D03*
%TD*%
D12*
%TO.C,R11*%
X195158000Y-47430000D03*
D13*
X195158000Y-37270000D03*
%TD*%
D24*
%TO.C,D1*%
X129286000Y-122682000D03*
D25*
X125476000Y-122682000D03*
%TD*%
D22*
%TO.C,R3*%
X139470000Y-52850000D03*
D23*
X139470000Y-80790000D03*
%TD*%
D19*
%TO.C,Q5*%
X195158000Y-29668000D03*
D20*
X200608000Y-29668000D03*
X206058000Y-29668000D03*
%TD*%
D12*
%TO.C,R8*%
X174778666Y-47430000D03*
D13*
X174778666Y-37270000D03*
%TD*%
D15*
%TO.C,P3*%
X216128000Y-63194000D03*
D16*
X216128000Y-58114000D03*
%TD*%
D12*
%TO.C,R15*%
X119562000Y-107518000D03*
D13*
X119562000Y-97358000D03*
%TD*%
M02*
