%TF.GenerationSoftware,KiCad,Pcbnew,(6.0.8)*%
%TF.CreationDate,2023-04-21T01:28:30+02:00*%
%TF.ProjectId,load_pcb,6c6f6164-5f70-4636-922e-6b696361645f,rev?*%
%TF.SameCoordinates,Original*%
%TF.FileFunction,Legend,Top*%
%TF.FilePolarity,Positive*%
%FSLAX46Y46*%
G04 Gerber Fmt 4.6, Leading zero omitted, Abs format (unit mm)*
G04 Created by KiCad (PCBNEW (6.0.8)) date 2023-04-21 01:28:30*
%MOMM*%
%LPD*%
G01*
G04 APERTURE LIST*
G04 Aperture macros list*
%AMRoundRect*
0 Rectangle with rounded corners*
0 $1 Rounding radius*
0 $2 $3 $4 $5 $6 $7 $8 $9 X,Y pos of 4 corners*
0 Add a 4 corners polygon primitive as box body*
4,1,4,$2,$3,$4,$5,$6,$7,$8,$9,$2,$3,0*
0 Add four circle primitives for the rounded corners*
1,1,$1+$1,$2,$3*
1,1,$1+$1,$4,$5*
1,1,$1+$1,$6,$7*
1,1,$1+$1,$8,$9*
0 Add four rect primitives between the rounded corners*
20,1,$1+$1,$2,$3,$4,$5,0*
20,1,$1+$1,$4,$5,$6,$7,0*
20,1,$1+$1,$6,$7,$8,$9,0*
20,1,$1+$1,$8,$9,$2,$3,0*%
G04 Aperture macros list end*
%ADD10C,0.150000*%
%ADD11C,0.120000*%
%ADD12C,0.127000*%
%ADD13R,1.700000X1.700000*%
%ADD14O,1.700000X1.700000*%
%ADD15C,1.600000*%
%ADD16O,1.600000X1.600000*%
%ADD17RoundRect,0.250000X-1.025000X0.875000X-1.025000X-0.875000X1.025000X-0.875000X1.025000X0.875000X0*%
%ADD18R,2.500000X2.500000*%
%ADD19C,2.500000*%
%ADD20C,5.000000*%
%ADD21C,4.000000*%
%ADD22R,2.500000X4.500000*%
%ADD23O,2.500000X4.500000*%
%ADD24RoundRect,0.250000X0.412500X0.650000X-0.412500X0.650000X-0.412500X-0.650000X0.412500X-0.650000X0*%
%ADD25C,2.400000*%
%ADD26O,2.400000X2.400000*%
%ADD27R,2.200000X2.200000*%
%ADD28O,2.200000X2.200000*%
%ADD29R,2.400000X1.600000*%
%ADD30O,2.400000X1.600000*%
%ADD31R,1.650000X1.650000*%
%ADD32C,1.650000*%
%ADD33RoundRect,0.250000X-0.650000X0.412500X-0.650000X-0.412500X0.650000X-0.412500X0.650000X0.412500X0*%
%ADD34R,1.600000X1.600000*%
G04 APERTURE END LIST*
D10*
X112540000Y-81128000D02*
X129810000Y-81128000D01*
X129810000Y-81128000D02*
X129810000Y-109068000D01*
X129810000Y-109068000D02*
X112540000Y-109068000D01*
X112540000Y-109068000D02*
X112540000Y-81128000D01*
X102362000Y-55372000D02*
X116332000Y-55372000D01*
X116332000Y-55372000D02*
X116332000Y-73406000D01*
X116332000Y-73406000D02*
X102362000Y-73406000D01*
X102362000Y-73406000D02*
X102362000Y-55372000D01*
X102139714Y-102052380D02*
X101568285Y-102052380D01*
X101854000Y-102052380D02*
X101854000Y-101052380D01*
X101758761Y-101195238D01*
X101663523Y-101290476D01*
X101568285Y-101338095D01*
X113062190Y-28844857D02*
X114586000Y-28844857D01*
X113824095Y-29606761D02*
X113824095Y-28082952D01*
X116586000Y-29606761D02*
X115443142Y-29606761D01*
X116014571Y-29606761D02*
X116014571Y-27606761D01*
X115824095Y-27892476D01*
X115633619Y-28082952D01*
X115443142Y-28178190D01*
X117347904Y-27797238D02*
X117443142Y-27702000D01*
X117633619Y-27606761D01*
X118109809Y-27606761D01*
X118300285Y-27702000D01*
X118395523Y-27797238D01*
X118490761Y-27987714D01*
X118490761Y-28178190D01*
X118395523Y-28463904D01*
X117252666Y-29606761D01*
X118490761Y-29606761D01*
X119062190Y-27606761D02*
X119728857Y-29606761D01*
X120395523Y-27606761D01*
X106042571Y-137473333D02*
X104852095Y-137473333D01*
X104852095Y-133973333D01*
X107233047Y-137473333D02*
X106994952Y-137306666D01*
X106875904Y-137140000D01*
X106756857Y-136806666D01*
X106756857Y-135806666D01*
X106875904Y-135473333D01*
X106994952Y-135306666D01*
X107233047Y-135140000D01*
X107590190Y-135140000D01*
X107828285Y-135306666D01*
X107947333Y-135473333D01*
X108066380Y-135806666D01*
X108066380Y-136806666D01*
X107947333Y-137140000D01*
X107828285Y-137306666D01*
X107590190Y-137473333D01*
X107233047Y-137473333D01*
X110209238Y-137473333D02*
X110209238Y-135640000D01*
X110090190Y-135306666D01*
X109852095Y-135140000D01*
X109375904Y-135140000D01*
X109137809Y-135306666D01*
X110209238Y-137306666D02*
X109971142Y-137473333D01*
X109375904Y-137473333D01*
X109137809Y-137306666D01*
X109018761Y-136973333D01*
X109018761Y-136640000D01*
X109137809Y-136306666D01*
X109375904Y-136140000D01*
X109971142Y-136140000D01*
X110209238Y-135973333D01*
X112471142Y-137473333D02*
X112471142Y-133973333D01*
X112471142Y-137306666D02*
X112233047Y-137473333D01*
X111756857Y-137473333D01*
X111518761Y-137306666D01*
X111399714Y-137140000D01*
X111280666Y-136806666D01*
X111280666Y-135806666D01*
X111399714Y-135473333D01*
X111518761Y-135306666D01*
X111756857Y-135140000D01*
X112233047Y-135140000D01*
X112471142Y-135306666D01*
X113066380Y-137806666D02*
X114971142Y-137806666D01*
X115566380Y-137473333D02*
X115566380Y-133973333D01*
X116518761Y-133973333D01*
X116756857Y-134140000D01*
X116875904Y-134306666D01*
X116994952Y-134640000D01*
X116994952Y-135140000D01*
X116875904Y-135473333D01*
X116756857Y-135640000D01*
X116518761Y-135806666D01*
X115566380Y-135806666D01*
X119494952Y-137140000D02*
X119375904Y-137306666D01*
X119018761Y-137473333D01*
X118780666Y-137473333D01*
X118423523Y-137306666D01*
X118185428Y-136973333D01*
X118066380Y-136640000D01*
X117947333Y-135973333D01*
X117947333Y-135473333D01*
X118066380Y-134806666D01*
X118185428Y-134473333D01*
X118423523Y-134140000D01*
X118780666Y-133973333D01*
X119018761Y-133973333D01*
X119375904Y-134140000D01*
X119494952Y-134306666D01*
X121399714Y-135640000D02*
X121756857Y-135806666D01*
X121875904Y-135973333D01*
X121994952Y-136306666D01*
X121994952Y-136806666D01*
X121875904Y-137140000D01*
X121756857Y-137306666D01*
X121518761Y-137473333D01*
X120566380Y-137473333D01*
X120566380Y-133973333D01*
X121399714Y-133973333D01*
X121637809Y-134140000D01*
X121756857Y-134306666D01*
X121875904Y-134640000D01*
X121875904Y-134973333D01*
X121756857Y-135306666D01*
X121637809Y-135473333D01*
X121399714Y-135640000D01*
X120566380Y-135640000D01*
X124613999Y-133973333D02*
X125447333Y-137473333D01*
X126280666Y-133973333D01*
X127590190Y-133973333D02*
X127828285Y-133973333D01*
X128066380Y-134140000D01*
X128185428Y-134306666D01*
X128304476Y-134640000D01*
X128423523Y-135306666D01*
X128423523Y-136140000D01*
X128304476Y-136806666D01*
X128185428Y-137140000D01*
X128066380Y-137306666D01*
X127828285Y-137473333D01*
X127590190Y-137473333D01*
X127352095Y-137306666D01*
X127233047Y-137140000D01*
X127113999Y-136806666D01*
X126994952Y-136140000D01*
X126994952Y-135306666D01*
X127113999Y-134640000D01*
X127233047Y-134306666D01*
X127352095Y-134140000D01*
X127590190Y-133973333D01*
X129494952Y-137140000D02*
X129613999Y-137306666D01*
X129494952Y-137473333D01*
X129375904Y-137306666D01*
X129494952Y-137140000D01*
X129494952Y-137473333D01*
X130447333Y-133973333D02*
X131994952Y-133973333D01*
X131161619Y-135306666D01*
X131518761Y-135306666D01*
X131756857Y-135473333D01*
X131875904Y-135640000D01*
X131994952Y-135973333D01*
X131994952Y-136806666D01*
X131875904Y-137140000D01*
X131756857Y-137306666D01*
X131518761Y-137473333D01*
X130804476Y-137473333D01*
X130566380Y-137306666D01*
X130447333Y-137140000D01*
X210962761Y-75262857D02*
X210010380Y-75929523D01*
X210962761Y-76405714D02*
X208962761Y-76405714D01*
X208962761Y-75643809D01*
X209058000Y-75453333D01*
X209153238Y-75358095D01*
X209343714Y-75262857D01*
X209629428Y-75262857D01*
X209819904Y-75358095D01*
X209915142Y-75453333D01*
X210010380Y-75643809D01*
X210010380Y-76405714D01*
X210867523Y-73643809D02*
X210962761Y-73834285D01*
X210962761Y-74215238D01*
X210867523Y-74405714D01*
X210677047Y-74500952D01*
X209915142Y-74500952D01*
X209724666Y-74405714D01*
X209629428Y-74215238D01*
X209629428Y-73834285D01*
X209724666Y-73643809D01*
X209915142Y-73548571D01*
X210105619Y-73548571D01*
X210296095Y-74500952D01*
X210962761Y-72405714D02*
X210867523Y-72596190D01*
X210677047Y-72691428D01*
X208962761Y-72691428D01*
X210962761Y-70786666D02*
X209915142Y-70786666D01*
X209724666Y-70881904D01*
X209629428Y-71072380D01*
X209629428Y-71453333D01*
X209724666Y-71643809D01*
X210867523Y-70786666D02*
X210962761Y-70977142D01*
X210962761Y-71453333D01*
X210867523Y-71643809D01*
X210677047Y-71739047D01*
X210486571Y-71739047D01*
X210296095Y-71643809D01*
X210200857Y-71453333D01*
X210200857Y-70977142D01*
X210105619Y-70786666D01*
X209629428Y-70024761D02*
X210962761Y-69548571D01*
X209629428Y-69072380D02*
X210962761Y-69548571D01*
X211438952Y-69739047D01*
X211534190Y-69834285D01*
X211629428Y-70024761D01*
X209153238Y-66881904D02*
X209058000Y-66786666D01*
X208962761Y-66596190D01*
X208962761Y-66120000D01*
X209058000Y-65929523D01*
X209153238Y-65834285D01*
X209343714Y-65739047D01*
X209534190Y-65739047D01*
X209819904Y-65834285D01*
X210962761Y-66977142D01*
X210962761Y-65739047D01*
X117633714Y-84018380D02*
X117062285Y-84018380D01*
X117348000Y-84018380D02*
X117348000Y-83018380D01*
X117252761Y-83161238D01*
X117157523Y-83256476D01*
X117062285Y-83304095D01*
X210200857Y-64229809D02*
X210200857Y-62706000D01*
X210962761Y-63467904D02*
X209438952Y-63467904D01*
X210200857Y-58706000D02*
X210200857Y-57182190D01*
X117697714Y-112006000D02*
X119126285Y-112006000D01*
X117412000Y-112863142D02*
X118412000Y-109863142D01*
X119412000Y-112863142D01*
X120412000Y-112863142D02*
X120412000Y-109863142D01*
X121126285Y-109863142D01*
X121554857Y-110006000D01*
X121840571Y-110291714D01*
X121983428Y-110577428D01*
X122126285Y-111148857D01*
X122126285Y-111577428D01*
X121983428Y-112148857D01*
X121840571Y-112434571D01*
X121554857Y-112720285D01*
X121126285Y-112863142D01*
X120412000Y-112863142D01*
X125126285Y-112577428D02*
X124983428Y-112720285D01*
X124554857Y-112863142D01*
X124269142Y-112863142D01*
X123840571Y-112720285D01*
X123554857Y-112434571D01*
X123412000Y-112148857D01*
X123269142Y-111577428D01*
X123269142Y-111148857D01*
X123412000Y-110577428D01*
X123554857Y-110291714D01*
X123840571Y-110006000D01*
X124269142Y-109863142D01*
X124554857Y-109863142D01*
X124983428Y-110006000D01*
X125126285Y-110148857D01*
X107219714Y-58364380D02*
X106648285Y-58364380D01*
X106934000Y-58364380D02*
X106934000Y-57364380D01*
X106838761Y-57507238D01*
X106743523Y-57602476D01*
X106648285Y-57650095D01*
X215844380Y-111084952D02*
X215844380Y-111656380D01*
X215844380Y-111370666D02*
X214844380Y-111370666D01*
X214987238Y-111465904D01*
X215082476Y-111561142D01*
X215130095Y-111656380D01*
X214844380Y-110465904D02*
X214844380Y-110370666D01*
X214892000Y-110275428D01*
X214939619Y-110227809D01*
X215034857Y-110180190D01*
X215225333Y-110132571D01*
X215463428Y-110132571D01*
X215653904Y-110180190D01*
X215749142Y-110227809D01*
X215796761Y-110275428D01*
X215844380Y-110370666D01*
X215844380Y-110465904D01*
X215796761Y-110561142D01*
X215749142Y-110608761D01*
X215653904Y-110656380D01*
X215463428Y-110704000D01*
X215225333Y-110704000D01*
X215034857Y-110656380D01*
X214939619Y-110608761D01*
X214892000Y-110561142D01*
X214844380Y-110465904D01*
X215844380Y-109799238D02*
X215177714Y-109275428D01*
X215177714Y-109799238D02*
X215844380Y-109275428D01*
X214844380Y-108989714D02*
X214844380Y-108370666D01*
X215225333Y-108704000D01*
X215225333Y-108561142D01*
X215272952Y-108465904D01*
X215320571Y-108418285D01*
X215415809Y-108370666D01*
X215653904Y-108370666D01*
X215749142Y-108418285D01*
X215796761Y-108465904D01*
X215844380Y-108561142D01*
X215844380Y-108846857D01*
X215796761Y-108942095D01*
X215749142Y-108989714D01*
X215272952Y-107799238D02*
X215225333Y-107894476D01*
X215177714Y-107942095D01*
X215082476Y-107989714D01*
X215034857Y-107989714D01*
X214939619Y-107942095D01*
X214892000Y-107894476D01*
X214844380Y-107799238D01*
X214844380Y-107608761D01*
X214892000Y-107513523D01*
X214939619Y-107465904D01*
X215034857Y-107418285D01*
X215082476Y-107418285D01*
X215177714Y-107465904D01*
X215225333Y-107513523D01*
X215272952Y-107608761D01*
X215272952Y-107799238D01*
X215320571Y-107894476D01*
X215368190Y-107942095D01*
X215463428Y-107989714D01*
X215653904Y-107989714D01*
X215749142Y-107942095D01*
X215796761Y-107894476D01*
X215844380Y-107799238D01*
X215844380Y-107608761D01*
X215796761Y-107513523D01*
X215749142Y-107465904D01*
X215653904Y-107418285D01*
X215463428Y-107418285D01*
X215368190Y-107465904D01*
X215320571Y-107513523D01*
X215272952Y-107608761D01*
X215844380Y-106989714D02*
X215177714Y-106989714D01*
X215272952Y-106989714D02*
X215225333Y-106942095D01*
X215177714Y-106846857D01*
X215177714Y-106704000D01*
X215225333Y-106608761D01*
X215320571Y-106561142D01*
X215844380Y-106561142D01*
X215320571Y-106561142D02*
X215225333Y-106513523D01*
X215177714Y-106418285D01*
X215177714Y-106275428D01*
X215225333Y-106180190D01*
X215320571Y-106132571D01*
X215844380Y-106132571D01*
X215844380Y-105656380D02*
X215177714Y-105656380D01*
X215272952Y-105656380D02*
X215225333Y-105608761D01*
X215177714Y-105513523D01*
X215177714Y-105370666D01*
X215225333Y-105275428D01*
X215320571Y-105227809D01*
X215844380Y-105227809D01*
X215320571Y-105227809D02*
X215225333Y-105180190D01*
X215177714Y-105084952D01*
X215177714Y-104942095D01*
X215225333Y-104846857D01*
X215320571Y-104799238D01*
X215844380Y-104799238D01*
X113554000Y-38861809D02*
X113458761Y-39052285D01*
X113458761Y-39338000D01*
X113554000Y-39623714D01*
X113744476Y-39814190D01*
X113934952Y-39909428D01*
X114315904Y-40004666D01*
X114601619Y-40004666D01*
X114982571Y-39909428D01*
X115173047Y-39814190D01*
X115363523Y-39623714D01*
X115458761Y-39338000D01*
X115458761Y-39147523D01*
X115363523Y-38861809D01*
X115268285Y-38766571D01*
X114601619Y-38766571D01*
X114601619Y-39147523D01*
X115458761Y-37909428D02*
X113458761Y-37909428D01*
X115458761Y-36766571D01*
X113458761Y-36766571D01*
X115458761Y-35814190D02*
X113458761Y-35814190D01*
X113458761Y-35338000D01*
X113554000Y-35052285D01*
X113744476Y-34861809D01*
X113934952Y-34766571D01*
X114315904Y-34671333D01*
X114601619Y-34671333D01*
X114982571Y-34766571D01*
X115173047Y-34861809D01*
X115363523Y-35052285D01*
X115458761Y-35338000D01*
X115458761Y-35814190D01*
X108752857Y-142327142D02*
X108038571Y-142327142D01*
X108038571Y-139327142D01*
X109252857Y-142327142D02*
X109252857Y-140327142D01*
X109252857Y-139327142D02*
X109181428Y-139470000D01*
X109252857Y-139612857D01*
X109324285Y-139470000D01*
X109252857Y-139327142D01*
X109252857Y-139612857D01*
X110610000Y-142184285D02*
X110467142Y-142327142D01*
X110181428Y-142327142D01*
X110038571Y-142184285D01*
X109967142Y-142041428D01*
X109895714Y-141755714D01*
X109895714Y-140898571D01*
X109967142Y-140612857D01*
X110038571Y-140470000D01*
X110181428Y-140327142D01*
X110467142Y-140327142D01*
X110610000Y-140470000D01*
X111824285Y-142184285D02*
X111681428Y-142327142D01*
X111395714Y-142327142D01*
X111252857Y-142184285D01*
X111181428Y-141898571D01*
X111181428Y-140755714D01*
X111252857Y-140470000D01*
X111395714Y-140327142D01*
X111681428Y-140327142D01*
X111824285Y-140470000D01*
X111895714Y-140755714D01*
X111895714Y-141041428D01*
X111181428Y-141327142D01*
X112538571Y-140327142D02*
X112538571Y-142327142D01*
X112538571Y-140612857D02*
X112610000Y-140470000D01*
X112752857Y-140327142D01*
X112967142Y-140327142D01*
X113110000Y-140470000D01*
X113181428Y-140755714D01*
X113181428Y-142327142D01*
X113824285Y-142184285D02*
X113967142Y-142327142D01*
X114252857Y-142327142D01*
X114395714Y-142184285D01*
X114467142Y-141898571D01*
X114467142Y-141755714D01*
X114395714Y-141470000D01*
X114252857Y-141327142D01*
X114038571Y-141327142D01*
X113895714Y-141184285D01*
X113824285Y-140898571D01*
X113824285Y-140755714D01*
X113895714Y-140470000D01*
X114038571Y-140327142D01*
X114252857Y-140327142D01*
X114395714Y-140470000D01*
X115681428Y-142184285D02*
X115538571Y-142327142D01*
X115252857Y-142327142D01*
X115110000Y-142184285D01*
X115038571Y-141898571D01*
X115038571Y-140755714D01*
X115110000Y-140470000D01*
X115252857Y-140327142D01*
X115538571Y-140327142D01*
X115681428Y-140470000D01*
X115752857Y-140755714D01*
X115752857Y-141041428D01*
X115038571Y-141327142D01*
X116395714Y-142041428D02*
X116467142Y-142184285D01*
X116395714Y-142327142D01*
X116324285Y-142184285D01*
X116395714Y-142041428D01*
X116395714Y-142327142D01*
X116395714Y-140470000D02*
X116467142Y-140612857D01*
X116395714Y-140755714D01*
X116324285Y-140612857D01*
X116395714Y-140470000D01*
X116395714Y-140755714D01*
X119038571Y-139470000D02*
X118895714Y-139327142D01*
X118681428Y-139327142D01*
X118467142Y-139470000D01*
X118324285Y-139755714D01*
X118252857Y-140041428D01*
X118181428Y-140612857D01*
X118181428Y-141041428D01*
X118252857Y-141612857D01*
X118324285Y-141898571D01*
X118467142Y-142184285D01*
X118681428Y-142327142D01*
X118824285Y-142327142D01*
X119038571Y-142184285D01*
X119110000Y-142041428D01*
X119110000Y-141041428D01*
X118824285Y-141041428D01*
X119752857Y-142327142D02*
X119752857Y-139327142D01*
X120610000Y-142327142D01*
X120610000Y-139327142D01*
X121324285Y-139327142D02*
X121324285Y-141755714D01*
X121395714Y-142041428D01*
X121467142Y-142184285D01*
X121610000Y-142327142D01*
X121895714Y-142327142D01*
X122038571Y-142184285D01*
X122110000Y-142041428D01*
X122181428Y-141755714D01*
X122181428Y-139327142D01*
X123824285Y-139327142D02*
X124324285Y-142327142D01*
X124824285Y-139327142D01*
X125181428Y-139327142D02*
X126110000Y-139327142D01*
X125610000Y-140470000D01*
X125824285Y-140470000D01*
X125967142Y-140612857D01*
X126038571Y-140755714D01*
X126110000Y-141041428D01*
X126110000Y-141755714D01*
X126038571Y-142041428D01*
X125967142Y-142184285D01*
X125824285Y-142327142D01*
X125395714Y-142327142D01*
X125252857Y-142184285D01*
X125181428Y-142041428D01*
X126752857Y-142041428D02*
X126824285Y-142184285D01*
X126752857Y-142327142D01*
X126681428Y-142184285D01*
X126752857Y-142041428D01*
X126752857Y-142327142D01*
X127752857Y-139327142D02*
X127895714Y-139327142D01*
X128038571Y-139470000D01*
X128110000Y-139612857D01*
X128181428Y-139898571D01*
X128252857Y-140470000D01*
X128252857Y-141184285D01*
X128181428Y-141755714D01*
X128110000Y-142041428D01*
X128038571Y-142184285D01*
X127895714Y-142327142D01*
X127752857Y-142327142D01*
X127610000Y-142184285D01*
X127538571Y-142041428D01*
X127467142Y-141755714D01*
X127395714Y-141184285D01*
X127395714Y-140470000D01*
X127467142Y-139898571D01*
X127538571Y-139612857D01*
X127610000Y-139470000D01*
X127752857Y-139327142D01*
X210708761Y-54180857D02*
X209756380Y-54847523D01*
X210708761Y-55323714D02*
X208708761Y-55323714D01*
X208708761Y-54561809D01*
X208804000Y-54371333D01*
X208899238Y-54276095D01*
X209089714Y-54180857D01*
X209375428Y-54180857D01*
X209565904Y-54276095D01*
X209661142Y-54371333D01*
X209756380Y-54561809D01*
X209756380Y-55323714D01*
X210613523Y-52561809D02*
X210708761Y-52752285D01*
X210708761Y-53133238D01*
X210613523Y-53323714D01*
X210423047Y-53418952D01*
X209661142Y-53418952D01*
X209470666Y-53323714D01*
X209375428Y-53133238D01*
X209375428Y-52752285D01*
X209470666Y-52561809D01*
X209661142Y-52466571D01*
X209851619Y-52466571D01*
X210042095Y-53418952D01*
X210708761Y-51323714D02*
X210613523Y-51514190D01*
X210423047Y-51609428D01*
X208708761Y-51609428D01*
X210708761Y-49704666D02*
X209661142Y-49704666D01*
X209470666Y-49799904D01*
X209375428Y-49990380D01*
X209375428Y-50371333D01*
X209470666Y-50561809D01*
X210613523Y-49704666D02*
X210708761Y-49895142D01*
X210708761Y-50371333D01*
X210613523Y-50561809D01*
X210423047Y-50657047D01*
X210232571Y-50657047D01*
X210042095Y-50561809D01*
X209946857Y-50371333D01*
X209946857Y-49895142D01*
X209851619Y-49704666D01*
X209375428Y-48942761D02*
X210708761Y-48466571D01*
X209375428Y-47990380D02*
X210708761Y-48466571D01*
X211184952Y-48657047D01*
X211280190Y-48752285D01*
X211375428Y-48942761D01*
X210708761Y-44657047D02*
X210708761Y-45799904D01*
X210708761Y-45228476D02*
X208708761Y-45228476D01*
X208994476Y-45418952D01*
X209184952Y-45609428D01*
X209280190Y-45799904D01*
X208930761Y-62340952D02*
X206930761Y-62340952D01*
X206930761Y-61579047D01*
X207026000Y-61388571D01*
X207121238Y-61293333D01*
X207311714Y-61198095D01*
X207597428Y-61198095D01*
X207787904Y-61293333D01*
X207883142Y-61388571D01*
X207978380Y-61579047D01*
X207978380Y-62340952D01*
X206930761Y-60626666D02*
X208930761Y-59960000D01*
X206930761Y-59293333D01*
X107172571Y-77303142D02*
X107172571Y-74303142D01*
X107886857Y-74303142D01*
X108315428Y-74446000D01*
X108601142Y-74731714D01*
X108744000Y-75017428D01*
X108886857Y-75588857D01*
X108886857Y-76017428D01*
X108744000Y-76588857D01*
X108601142Y-76874571D01*
X108315428Y-77160285D01*
X107886857Y-77303142D01*
X107172571Y-77303142D01*
X110029714Y-76446000D02*
X111458285Y-76446000D01*
X109744000Y-77303142D02*
X110744000Y-74303142D01*
X111744000Y-77303142D01*
X114458285Y-77017428D02*
X114315428Y-77160285D01*
X113886857Y-77303142D01*
X113601142Y-77303142D01*
X113172571Y-77160285D01*
X112886857Y-76874571D01*
X112744000Y-76588857D01*
X112601142Y-76017428D01*
X112601142Y-75588857D01*
X112744000Y-75017428D01*
X112886857Y-74731714D01*
X113172571Y-74446000D01*
X113601142Y-74303142D01*
X113886857Y-74303142D01*
X114315428Y-74446000D01*
X114458285Y-74588857D01*
X111561619Y-114618000D02*
X112037809Y-114284666D01*
X111561619Y-114046571D02*
X112561619Y-114046571D01*
X112561619Y-114427523D01*
X112514000Y-114522761D01*
X112466380Y-114570380D01*
X112371142Y-114618000D01*
X112228285Y-114618000D01*
X112133047Y-114570380D01*
X112085428Y-114522761D01*
X112037809Y-114427523D01*
X112037809Y-114046571D01*
X111561619Y-115475142D02*
X112085428Y-115475142D01*
X112180666Y-115427523D01*
X112228285Y-115332285D01*
X112228285Y-115141809D01*
X112180666Y-115046571D01*
X111609238Y-115475142D02*
X111561619Y-115379904D01*
X111561619Y-115141809D01*
X111609238Y-115046571D01*
X111704476Y-114998952D01*
X111799714Y-114998952D01*
X111894952Y-115046571D01*
X111942571Y-115141809D01*
X111942571Y-115379904D01*
X111990190Y-115475142D01*
X111609238Y-115903714D02*
X111561619Y-115998952D01*
X111561619Y-116189428D01*
X111609238Y-116284666D01*
X111704476Y-116332285D01*
X111752095Y-116332285D01*
X111847333Y-116284666D01*
X111894952Y-116189428D01*
X111894952Y-116046571D01*
X111942571Y-115951333D01*
X112037809Y-115903714D01*
X112085428Y-115903714D01*
X112180666Y-115951333D01*
X112228285Y-116046571D01*
X112228285Y-116189428D01*
X112180666Y-116284666D01*
X112228285Y-116760857D02*
X111228285Y-116760857D01*
X112180666Y-116760857D02*
X112228285Y-116856095D01*
X112228285Y-117046571D01*
X112180666Y-117141809D01*
X112133047Y-117189428D01*
X112037809Y-117237047D01*
X111752095Y-117237047D01*
X111656857Y-117189428D01*
X111609238Y-117141809D01*
X111561619Y-117046571D01*
X111561619Y-116856095D01*
X111609238Y-116760857D01*
X111561619Y-117665619D02*
X112561619Y-117665619D01*
X112180666Y-117665619D02*
X112228285Y-117760857D01*
X112228285Y-117951333D01*
X112180666Y-118046571D01*
X112133047Y-118094190D01*
X112037809Y-118141809D01*
X111752095Y-118141809D01*
X111656857Y-118094190D01*
X111609238Y-118046571D01*
X111561619Y-117951333D01*
X111561619Y-117760857D01*
X111609238Y-117665619D01*
X111609238Y-118951333D02*
X111561619Y-118856095D01*
X111561619Y-118665619D01*
X111609238Y-118570380D01*
X111704476Y-118522761D01*
X112085428Y-118522761D01*
X112180666Y-118570380D01*
X112228285Y-118665619D01*
X112228285Y-118856095D01*
X112180666Y-118951333D01*
X112085428Y-118998952D01*
X111990190Y-118998952D01*
X111894952Y-118522761D01*
X111561619Y-119427523D02*
X112228285Y-119427523D01*
X112037809Y-119427523D02*
X112133047Y-119475142D01*
X112180666Y-119522761D01*
X112228285Y-119618000D01*
X112228285Y-119713238D01*
X111561619Y-120046571D02*
X112228285Y-120046571D01*
X112037809Y-120046571D02*
X112133047Y-120094190D01*
X112180666Y-120141809D01*
X112228285Y-120237047D01*
X112228285Y-120332285D01*
X112228285Y-120570380D02*
X111561619Y-120808476D01*
X112228285Y-121046571D02*
X111561619Y-120808476D01*
X111323523Y-120713238D01*
X111275904Y-120665619D01*
X111228285Y-120570380D01*
X111561619Y-122189428D02*
X112561619Y-122189428D01*
X112561619Y-122570380D01*
X112514000Y-122665619D01*
X112466380Y-122713238D01*
X112371142Y-122760857D01*
X112228285Y-122760857D01*
X112133047Y-122713238D01*
X112085428Y-122665619D01*
X112037809Y-122570380D01*
X112037809Y-122189428D01*
X111561619Y-123189428D02*
X112228285Y-123189428D01*
X112561619Y-123189428D02*
X112514000Y-123141809D01*
X112466380Y-123189428D01*
X112514000Y-123237047D01*
X112561619Y-123189428D01*
X112466380Y-123189428D01*
X111537714Y-84018380D02*
X110966285Y-84018380D01*
X111252000Y-84018380D02*
X111252000Y-83018380D01*
X111156761Y-83161238D01*
X111061523Y-83256476D01*
X110966285Y-83304095D01*
%TO.C,J1*%
X108632666Y-80502380D02*
X108632666Y-81216666D01*
X108585047Y-81359523D01*
X108489809Y-81454761D01*
X108346952Y-81502380D01*
X108251714Y-81502380D01*
X109632666Y-81502380D02*
X109061238Y-81502380D01*
X109346952Y-81502380D02*
X109346952Y-80502380D01*
X109251714Y-80645238D01*
X109156476Y-80740476D01*
X109061238Y-80788095D01*
%TO.C,J3*%
X114502666Y-80502380D02*
X114502666Y-81216666D01*
X114455047Y-81359523D01*
X114359809Y-81454761D01*
X114216952Y-81502380D01*
X114121714Y-81502380D01*
X114883619Y-80502380D02*
X115502666Y-80502380D01*
X115169333Y-80883333D01*
X115312190Y-80883333D01*
X115407428Y-80930952D01*
X115455047Y-80978571D01*
X115502666Y-81073809D01*
X115502666Y-81311904D01*
X115455047Y-81407142D01*
X115407428Y-81454761D01*
X115312190Y-81502380D01*
X115026476Y-81502380D01*
X114931238Y-81454761D01*
X114883619Y-81407142D01*
%TO.C,R16*%
X129288380Y-88094857D02*
X128812190Y-88428190D01*
X129288380Y-88666285D02*
X128288380Y-88666285D01*
X128288380Y-88285333D01*
X128336000Y-88190095D01*
X128383619Y-88142476D01*
X128478857Y-88094857D01*
X128621714Y-88094857D01*
X128716952Y-88142476D01*
X128764571Y-88190095D01*
X128812190Y-88285333D01*
X128812190Y-88666285D01*
X129288380Y-87142476D02*
X129288380Y-87713904D01*
X129288380Y-87428190D02*
X128288380Y-87428190D01*
X128431238Y-87523428D01*
X128526476Y-87618666D01*
X128574095Y-87713904D01*
X128288380Y-86285333D02*
X128288380Y-86475809D01*
X128336000Y-86571047D01*
X128383619Y-86618666D01*
X128526476Y-86713904D01*
X128716952Y-86761523D01*
X129097904Y-86761523D01*
X129193142Y-86713904D01*
X129240761Y-86666285D01*
X129288380Y-86571047D01*
X129288380Y-86380571D01*
X129240761Y-86285333D01*
X129193142Y-86237714D01*
X129097904Y-86190095D01*
X128859809Y-86190095D01*
X128764571Y-86237714D01*
X128716952Y-86285333D01*
X128669333Y-86380571D01*
X128669333Y-86571047D01*
X128716952Y-86666285D01*
X128764571Y-86713904D01*
X128859809Y-86761523D01*
%TO.C,C1*%
X122329142Y-34964666D02*
X122376761Y-35012285D01*
X122424380Y-35155142D01*
X122424380Y-35250380D01*
X122376761Y-35393238D01*
X122281523Y-35488476D01*
X122186285Y-35536095D01*
X121995809Y-35583714D01*
X121852952Y-35583714D01*
X121662476Y-35536095D01*
X121567238Y-35488476D01*
X121472000Y-35393238D01*
X121424380Y-35250380D01*
X121424380Y-35155142D01*
X121472000Y-35012285D01*
X121519619Y-34964666D01*
X122424380Y-34012285D02*
X122424380Y-34583714D01*
X122424380Y-34298000D02*
X121424380Y-34298000D01*
X121567238Y-34393238D01*
X121662476Y-34488476D01*
X121710095Y-34583714D01*
%TO.C,P4*%
X221888358Y-71918855D02*
X220886319Y-71918855D01*
X220886319Y-71537126D01*
X220934035Y-71441693D01*
X220981751Y-71393977D01*
X221077183Y-71346261D01*
X221220332Y-71346261D01*
X221315764Y-71393977D01*
X221363480Y-71441693D01*
X221411196Y-71537126D01*
X221411196Y-71918855D01*
X221220332Y-70487370D02*
X221888358Y-70487370D01*
X220838603Y-70725951D02*
X221554345Y-70964532D01*
X221554345Y-70344222D01*
%TO.C,F1*%
X209146571Y-108413333D02*
X209146571Y-108746666D01*
X209670380Y-108746666D02*
X208670380Y-108746666D01*
X208670380Y-108270476D01*
X209670380Y-107365714D02*
X209670380Y-107937142D01*
X209670380Y-107651428D02*
X208670380Y-107651428D01*
X208813238Y-107746666D01*
X208908476Y-107841904D01*
X208956095Y-107937142D01*
%TO.C,Q3*%
X159754094Y-35655619D02*
X159658856Y-35608000D01*
X159563618Y-35512761D01*
X159420761Y-35369904D01*
X159325523Y-35322285D01*
X159230285Y-35322285D01*
X159277904Y-35560380D02*
X159182666Y-35512761D01*
X159087428Y-35417523D01*
X159039809Y-35227047D01*
X159039809Y-34893714D01*
X159087428Y-34703238D01*
X159182666Y-34608000D01*
X159277904Y-34560380D01*
X159468380Y-34560380D01*
X159563618Y-34608000D01*
X159658856Y-34703238D01*
X159706475Y-34893714D01*
X159706475Y-35227047D01*
X159658856Y-35417523D01*
X159563618Y-35512761D01*
X159468380Y-35560380D01*
X159277904Y-35560380D01*
X160039809Y-34560380D02*
X160658856Y-34560380D01*
X160325523Y-34941333D01*
X160468380Y-34941333D01*
X160563618Y-34988952D01*
X160611237Y-35036571D01*
X160658856Y-35131809D01*
X160658856Y-35369904D01*
X160611237Y-35465142D01*
X160563618Y-35512761D01*
X160468380Y-35560380D01*
X160182666Y-35560380D01*
X160087428Y-35512761D01*
X160039809Y-35465142D01*
%TO.C,C3*%
X122691833Y-64183142D02*
X122644214Y-64230761D01*
X122501357Y-64278380D01*
X122406119Y-64278380D01*
X122263261Y-64230761D01*
X122168023Y-64135523D01*
X122120404Y-64040285D01*
X122072785Y-63849809D01*
X122072785Y-63706952D01*
X122120404Y-63516476D01*
X122168023Y-63421238D01*
X122263261Y-63326000D01*
X122406119Y-63278380D01*
X122501357Y-63278380D01*
X122644214Y-63326000D01*
X122691833Y-63373619D01*
X123025166Y-63278380D02*
X123644214Y-63278380D01*
X123310880Y-63659333D01*
X123453738Y-63659333D01*
X123548976Y-63706952D01*
X123596595Y-63754571D01*
X123644214Y-63849809D01*
X123644214Y-64087904D01*
X123596595Y-64183142D01*
X123548976Y-64230761D01*
X123453738Y-64278380D01*
X123168023Y-64278380D01*
X123072785Y-64230761D01*
X123025166Y-64183142D01*
%TO.C,R2*%
X132102380Y-42516666D02*
X131626190Y-42850000D01*
X132102380Y-43088095D02*
X131102380Y-43088095D01*
X131102380Y-42707142D01*
X131150000Y-42611904D01*
X131197619Y-42564285D01*
X131292857Y-42516666D01*
X131435714Y-42516666D01*
X131530952Y-42564285D01*
X131578571Y-42611904D01*
X131626190Y-42707142D01*
X131626190Y-43088095D01*
X131197619Y-42135714D02*
X131150000Y-42088095D01*
X131102380Y-41992857D01*
X131102380Y-41754761D01*
X131150000Y-41659523D01*
X131197619Y-41611904D01*
X131292857Y-41564285D01*
X131388095Y-41564285D01*
X131530952Y-41611904D01*
X132102380Y-42183333D01*
X132102380Y-41564285D01*
%TO.C,R6*%
X165921713Y-66986666D02*
X165445523Y-67320000D01*
X165921713Y-67558095D02*
X164921713Y-67558095D01*
X164921713Y-67177142D01*
X164969333Y-67081904D01*
X165016952Y-67034285D01*
X165112190Y-66986666D01*
X165255047Y-66986666D01*
X165350285Y-67034285D01*
X165397904Y-67081904D01*
X165445523Y-67177142D01*
X165445523Y-67558095D01*
X164921713Y-66129523D02*
X164921713Y-66320000D01*
X164969333Y-66415238D01*
X165016952Y-66462857D01*
X165159809Y-66558095D01*
X165350285Y-66605714D01*
X165731237Y-66605714D01*
X165826475Y-66558095D01*
X165874094Y-66510476D01*
X165921713Y-66415238D01*
X165921713Y-66224761D01*
X165874094Y-66129523D01*
X165826475Y-66081904D01*
X165731237Y-66034285D01*
X165493142Y-66034285D01*
X165397904Y-66081904D01*
X165350285Y-66129523D01*
X165302666Y-66224761D01*
X165302666Y-66415238D01*
X165350285Y-66510476D01*
X165397904Y-66558095D01*
X165493142Y-66605714D01*
%TO.C,P2*%
X221888358Y-51090855D02*
X220886319Y-51090855D01*
X220886319Y-50709126D01*
X220934035Y-50613693D01*
X220981751Y-50565977D01*
X221077183Y-50518261D01*
X221220332Y-50518261D01*
X221315764Y-50565977D01*
X221363480Y-50613693D01*
X221411196Y-50709126D01*
X221411196Y-51090855D01*
X220981751Y-50136532D02*
X220934035Y-50088816D01*
X220886319Y-49993383D01*
X220886319Y-49754803D01*
X220934035Y-49659370D01*
X220981751Y-49611654D01*
X221077183Y-49563938D01*
X221172616Y-49563938D01*
X221315764Y-49611654D01*
X221888358Y-50184248D01*
X221888358Y-49563938D01*
%TO.C,R9*%
X186301046Y-66986666D02*
X185824856Y-67320000D01*
X186301046Y-67558095D02*
X185301046Y-67558095D01*
X185301046Y-67177142D01*
X185348666Y-67081904D01*
X185396285Y-67034285D01*
X185491523Y-66986666D01*
X185634380Y-66986666D01*
X185729618Y-67034285D01*
X185777237Y-67081904D01*
X185824856Y-67177142D01*
X185824856Y-67558095D01*
X186301046Y-66510476D02*
X186301046Y-66320000D01*
X186253427Y-66224761D01*
X186205808Y-66177142D01*
X186062951Y-66081904D01*
X185872475Y-66034285D01*
X185491523Y-66034285D01*
X185396285Y-66081904D01*
X185348666Y-66129523D01*
X185301046Y-66224761D01*
X185301046Y-66415238D01*
X185348666Y-66510476D01*
X185396285Y-66558095D01*
X185491523Y-66605714D01*
X185729618Y-66605714D01*
X185824856Y-66558095D01*
X185872475Y-66510476D01*
X185920094Y-66415238D01*
X185920094Y-66224761D01*
X185872475Y-66129523D01*
X185824856Y-66081904D01*
X185729618Y-66034285D01*
%TO.C,R20*%
X122203507Y-131582745D02*
X121870174Y-131106555D01*
X121632079Y-131582745D02*
X121632079Y-130582745D01*
X122013031Y-130582745D01*
X122108269Y-130630365D01*
X122155888Y-130677984D01*
X122203507Y-130773222D01*
X122203507Y-130916079D01*
X122155888Y-131011317D01*
X122108269Y-131058936D01*
X122013031Y-131106555D01*
X121632079Y-131106555D01*
X122584460Y-130677984D02*
X122632079Y-130630365D01*
X122727317Y-130582745D01*
X122965412Y-130582745D01*
X123060650Y-130630365D01*
X123108269Y-130677984D01*
X123155888Y-130773222D01*
X123155888Y-130868460D01*
X123108269Y-131011317D01*
X122536841Y-131582745D01*
X123155888Y-131582745D01*
X123774936Y-130582745D02*
X123870174Y-130582745D01*
X123965412Y-130630365D01*
X124013031Y-130677984D01*
X124060650Y-130773222D01*
X124108269Y-130963698D01*
X124108269Y-131201793D01*
X124060650Y-131392269D01*
X124013031Y-131487507D01*
X123965412Y-131535126D01*
X123870174Y-131582745D01*
X123774936Y-131582745D01*
X123679698Y-131535126D01*
X123632079Y-131487507D01*
X123584460Y-131392269D01*
X123536841Y-131201793D01*
X123536841Y-130963698D01*
X123584460Y-130773222D01*
X123632079Y-130677984D01*
X123679698Y-130630365D01*
X123774936Y-130582745D01*
%TO.C,D2*%
X117636904Y-120383745D02*
X117636904Y-119383745D01*
X117875000Y-119383745D01*
X118017857Y-119431365D01*
X118113095Y-119526603D01*
X118160714Y-119621841D01*
X118208333Y-119812317D01*
X118208333Y-119955174D01*
X118160714Y-120145650D01*
X118113095Y-120240888D01*
X118017857Y-120336126D01*
X117875000Y-120383745D01*
X117636904Y-120383745D01*
X118589285Y-119478984D02*
X118636904Y-119431365D01*
X118732142Y-119383745D01*
X118970238Y-119383745D01*
X119065476Y-119431365D01*
X119113095Y-119478984D01*
X119160714Y-119574222D01*
X119160714Y-119669460D01*
X119113095Y-119812317D01*
X118541666Y-120383745D01*
X119160714Y-120383745D01*
X118241904Y-123948666D02*
X118718095Y-123948666D01*
X118146666Y-124234380D02*
X118480000Y-123234380D01*
X118813333Y-124234380D01*
%TO.C,R12*%
X206680380Y-67462857D02*
X206204190Y-67796190D01*
X206680380Y-68034285D02*
X205680380Y-68034285D01*
X205680380Y-67653333D01*
X205728000Y-67558095D01*
X205775619Y-67510476D01*
X205870857Y-67462857D01*
X206013714Y-67462857D01*
X206108952Y-67510476D01*
X206156571Y-67558095D01*
X206204190Y-67653333D01*
X206204190Y-68034285D01*
X206680380Y-66510476D02*
X206680380Y-67081904D01*
X206680380Y-66796190D02*
X205680380Y-66796190D01*
X205823238Y-66891428D01*
X205918476Y-66986666D01*
X205966095Y-67081904D01*
X205775619Y-66129523D02*
X205728000Y-66081904D01*
X205680380Y-65986666D01*
X205680380Y-65748571D01*
X205728000Y-65653333D01*
X205775619Y-65605714D01*
X205870857Y-65558095D01*
X205966095Y-65558095D01*
X206108952Y-65605714D01*
X206680380Y-66177142D01*
X206680380Y-65558095D01*
%TO.C,Q2*%
X139374761Y-35655619D02*
X139279523Y-35608000D01*
X139184285Y-35512761D01*
X139041428Y-35369904D01*
X138946190Y-35322285D01*
X138850952Y-35322285D01*
X138898571Y-35560380D02*
X138803333Y-35512761D01*
X138708095Y-35417523D01*
X138660476Y-35227047D01*
X138660476Y-34893714D01*
X138708095Y-34703238D01*
X138803333Y-34608000D01*
X138898571Y-34560380D01*
X139089047Y-34560380D01*
X139184285Y-34608000D01*
X139279523Y-34703238D01*
X139327142Y-34893714D01*
X139327142Y-35227047D01*
X139279523Y-35417523D01*
X139184285Y-35512761D01*
X139089047Y-35560380D01*
X138898571Y-35560380D01*
X139708095Y-34655619D02*
X139755714Y-34608000D01*
X139850952Y-34560380D01*
X140089047Y-34560380D01*
X140184285Y-34608000D01*
X140231904Y-34655619D01*
X140279523Y-34750857D01*
X140279523Y-34846095D01*
X140231904Y-34988952D01*
X139660476Y-35560380D01*
X140279523Y-35560380D01*
%TO.C,J4*%
X104114666Y-54736380D02*
X104114666Y-55450666D01*
X104067047Y-55593523D01*
X103971809Y-55688761D01*
X103828952Y-55736380D01*
X103733714Y-55736380D01*
X105019428Y-55069714D02*
X105019428Y-55736380D01*
X104781333Y-54688761D02*
X104543238Y-55403047D01*
X105162285Y-55403047D01*
%TO.C,Q4*%
X180133427Y-35655619D02*
X180038189Y-35608000D01*
X179942951Y-35512761D01*
X179800094Y-35369904D01*
X179704856Y-35322285D01*
X179609618Y-35322285D01*
X179657237Y-35560380D02*
X179561999Y-35512761D01*
X179466761Y-35417523D01*
X179419142Y-35227047D01*
X179419142Y-34893714D01*
X179466761Y-34703238D01*
X179561999Y-34608000D01*
X179657237Y-34560380D01*
X179847713Y-34560380D01*
X179942951Y-34608000D01*
X180038189Y-34703238D01*
X180085808Y-34893714D01*
X180085808Y-35227047D01*
X180038189Y-35417523D01*
X179942951Y-35512761D01*
X179847713Y-35560380D01*
X179657237Y-35560380D01*
X180942951Y-34893714D02*
X180942951Y-35560380D01*
X180704856Y-34512761D02*
X180466761Y-35227047D01*
X181085808Y-35227047D01*
%TO.C,U1*%
X108966095Y-40810380D02*
X108966095Y-41619904D01*
X109013714Y-41715142D01*
X109061333Y-41762761D01*
X109156571Y-41810380D01*
X109347047Y-41810380D01*
X109442285Y-41762761D01*
X109489904Y-41715142D01*
X109537523Y-41619904D01*
X109537523Y-40810380D01*
X110537523Y-41810380D02*
X109966095Y-41810380D01*
X110251809Y-41810380D02*
X110251809Y-40810380D01*
X110156571Y-40953238D01*
X110061333Y-41048476D01*
X109966095Y-41096095D01*
%TO.C,R5*%
X152481713Y-42516666D02*
X152005523Y-42850000D01*
X152481713Y-43088095D02*
X151481713Y-43088095D01*
X151481713Y-42707142D01*
X151529333Y-42611904D01*
X151576952Y-42564285D01*
X151672190Y-42516666D01*
X151815047Y-42516666D01*
X151910285Y-42564285D01*
X151957904Y-42611904D01*
X152005523Y-42707142D01*
X152005523Y-43088095D01*
X151481713Y-41611904D02*
X151481713Y-42088095D01*
X151957904Y-42135714D01*
X151910285Y-42088095D01*
X151862666Y-41992857D01*
X151862666Y-41754761D01*
X151910285Y-41659523D01*
X151957904Y-41611904D01*
X152053142Y-41564285D01*
X152291237Y-41564285D01*
X152386475Y-41611904D01*
X152434094Y-41659523D01*
X152481713Y-41754761D01*
X152481713Y-41992857D01*
X152434094Y-42088095D01*
X152386475Y-42135714D01*
%TO.C,R7*%
X145542380Y-119170666D02*
X145066190Y-119504000D01*
X145542380Y-119742095D02*
X144542380Y-119742095D01*
X144542380Y-119361142D01*
X144590000Y-119265904D01*
X144637619Y-119218285D01*
X144732857Y-119170666D01*
X144875714Y-119170666D01*
X144970952Y-119218285D01*
X145018571Y-119265904D01*
X145066190Y-119361142D01*
X145066190Y-119742095D01*
X144542380Y-118837333D02*
X144542380Y-118170666D01*
X145542380Y-118599238D01*
%TO.C,R4*%
X186301046Y-119170666D02*
X185824856Y-119504000D01*
X186301046Y-119742095D02*
X185301046Y-119742095D01*
X185301046Y-119361142D01*
X185348666Y-119265904D01*
X185396285Y-119218285D01*
X185491523Y-119170666D01*
X185634380Y-119170666D01*
X185729618Y-119218285D01*
X185777237Y-119265904D01*
X185824856Y-119361142D01*
X185824856Y-119742095D01*
X185634380Y-118313523D02*
X186301046Y-118313523D01*
X185253427Y-118551619D02*
X185967713Y-118789714D01*
X185967713Y-118170666D01*
%TO.C,R17*%
X117644380Y-88094857D02*
X117168190Y-88428190D01*
X117644380Y-88666285D02*
X116644380Y-88666285D01*
X116644380Y-88285333D01*
X116692000Y-88190095D01*
X116739619Y-88142476D01*
X116834857Y-88094857D01*
X116977714Y-88094857D01*
X117072952Y-88142476D01*
X117120571Y-88190095D01*
X117168190Y-88285333D01*
X117168190Y-88666285D01*
X117644380Y-87142476D02*
X117644380Y-87713904D01*
X117644380Y-87428190D02*
X116644380Y-87428190D01*
X116787238Y-87523428D01*
X116882476Y-87618666D01*
X116930095Y-87713904D01*
X116644380Y-86809142D02*
X116644380Y-86142476D01*
X117644380Y-86571047D01*
%TO.C,R21*%
X125341142Y-59804380D02*
X125007809Y-59328190D01*
X124769714Y-59804380D02*
X124769714Y-58804380D01*
X125150666Y-58804380D01*
X125245904Y-58852000D01*
X125293523Y-58899619D01*
X125341142Y-58994857D01*
X125341142Y-59137714D01*
X125293523Y-59232952D01*
X125245904Y-59280571D01*
X125150666Y-59328190D01*
X124769714Y-59328190D01*
X125722095Y-58899619D02*
X125769714Y-58852000D01*
X125864952Y-58804380D01*
X126103047Y-58804380D01*
X126198285Y-58852000D01*
X126245904Y-58899619D01*
X126293523Y-58994857D01*
X126293523Y-59090095D01*
X126245904Y-59232952D01*
X125674476Y-59804380D01*
X126293523Y-59804380D01*
X127245904Y-59804380D02*
X126674476Y-59804380D01*
X126960190Y-59804380D02*
X126960190Y-58804380D01*
X126864952Y-58947238D01*
X126769714Y-59042476D01*
X126674476Y-59090095D01*
%TO.C,J2*%
X104038666Y-103822380D02*
X104038666Y-104536666D01*
X103991047Y-104679523D01*
X103895809Y-104774761D01*
X103752952Y-104822380D01*
X103657714Y-104822380D01*
X104467238Y-103917619D02*
X104514857Y-103870000D01*
X104610095Y-103822380D01*
X104848190Y-103822380D01*
X104943428Y-103870000D01*
X104991047Y-103917619D01*
X105038666Y-104012857D01*
X105038666Y-104108095D01*
X104991047Y-104250952D01*
X104419619Y-104822380D01*
X105038666Y-104822380D01*
%TO.C,R13*%
X165921713Y-119646857D02*
X165445523Y-119980190D01*
X165921713Y-120218285D02*
X164921713Y-120218285D01*
X164921713Y-119837333D01*
X164969333Y-119742095D01*
X165016952Y-119694476D01*
X165112190Y-119646857D01*
X165255047Y-119646857D01*
X165350285Y-119694476D01*
X165397904Y-119742095D01*
X165445523Y-119837333D01*
X165445523Y-120218285D01*
X165921713Y-118694476D02*
X165921713Y-119265904D01*
X165921713Y-118980190D02*
X164921713Y-118980190D01*
X165064571Y-119075428D01*
X165159809Y-119170666D01*
X165207428Y-119265904D01*
X164921713Y-118361142D02*
X164921713Y-117742095D01*
X165302666Y-118075428D01*
X165302666Y-117932571D01*
X165350285Y-117837333D01*
X165397904Y-117789714D01*
X165493142Y-117742095D01*
X165731237Y-117742095D01*
X165826475Y-117789714D01*
X165874094Y-117837333D01*
X165921713Y-117932571D01*
X165921713Y-118218285D01*
X165874094Y-118313523D01*
X165826475Y-118361142D01*
%TO.C,R1*%
X125817333Y-51610380D02*
X125484000Y-51134190D01*
X125245904Y-51610380D02*
X125245904Y-50610380D01*
X125626857Y-50610380D01*
X125722095Y-50658000D01*
X125769714Y-50705619D01*
X125817333Y-50800857D01*
X125817333Y-50943714D01*
X125769714Y-51038952D01*
X125722095Y-51086571D01*
X125626857Y-51134190D01*
X125245904Y-51134190D01*
X126769714Y-51610380D02*
X126198285Y-51610380D01*
X126484000Y-51610380D02*
X126484000Y-50610380D01*
X126388761Y-50753238D01*
X126293523Y-50848476D01*
X126198285Y-50896095D01*
%TO.C,P1*%
X107211344Y-28484048D02*
X107211344Y-27482009D01*
X107593073Y-27482009D01*
X107688506Y-27529725D01*
X107736222Y-27577441D01*
X107783938Y-27672873D01*
X107783938Y-27816022D01*
X107736222Y-27911454D01*
X107688506Y-27959170D01*
X107593073Y-28006886D01*
X107211344Y-28006886D01*
X108738261Y-28484048D02*
X108165667Y-28484048D01*
X108451964Y-28484048D02*
X108451964Y-27482009D01*
X108356532Y-27625157D01*
X108261099Y-27720590D01*
X108165667Y-27768306D01*
%TO.C,C2*%
X127639142Y-33327166D02*
X127686761Y-33374785D01*
X127734380Y-33517642D01*
X127734380Y-33612880D01*
X127686761Y-33755738D01*
X127591523Y-33850976D01*
X127496285Y-33898595D01*
X127305809Y-33946214D01*
X127162952Y-33946214D01*
X126972476Y-33898595D01*
X126877238Y-33850976D01*
X126782000Y-33755738D01*
X126734380Y-33612880D01*
X126734380Y-33517642D01*
X126782000Y-33374785D01*
X126829619Y-33327166D01*
X126829619Y-32946214D02*
X126782000Y-32898595D01*
X126734380Y-32803357D01*
X126734380Y-32565261D01*
X126782000Y-32470023D01*
X126829619Y-32422404D01*
X126924857Y-32374785D01*
X127020095Y-32374785D01*
X127162952Y-32422404D01*
X127734380Y-32993833D01*
X127734380Y-32374785D01*
%TO.C,R18*%
X124118380Y-72494857D02*
X123642190Y-72828190D01*
X124118380Y-73066285D02*
X123118380Y-73066285D01*
X123118380Y-72685333D01*
X123166000Y-72590095D01*
X123213619Y-72542476D01*
X123308857Y-72494857D01*
X123451714Y-72494857D01*
X123546952Y-72542476D01*
X123594571Y-72590095D01*
X123642190Y-72685333D01*
X123642190Y-73066285D01*
X124118380Y-71542476D02*
X124118380Y-72113904D01*
X124118380Y-71828190D02*
X123118380Y-71828190D01*
X123261238Y-71923428D01*
X123356476Y-72018666D01*
X123404095Y-72113904D01*
X123546952Y-70971047D02*
X123499333Y-71066285D01*
X123451714Y-71113904D01*
X123356476Y-71161523D01*
X123308857Y-71161523D01*
X123213619Y-71113904D01*
X123166000Y-71066285D01*
X123118380Y-70971047D01*
X123118380Y-70780571D01*
X123166000Y-70685333D01*
X123213619Y-70637714D01*
X123308857Y-70590095D01*
X123356476Y-70590095D01*
X123451714Y-70637714D01*
X123499333Y-70685333D01*
X123546952Y-70780571D01*
X123546952Y-70971047D01*
X123594571Y-71066285D01*
X123642190Y-71113904D01*
X123737428Y-71161523D01*
X123927904Y-71161523D01*
X124023142Y-71113904D01*
X124070761Y-71066285D01*
X124118380Y-70971047D01*
X124118380Y-70780571D01*
X124070761Y-70685333D01*
X124023142Y-70637714D01*
X123927904Y-70590095D01*
X123737428Y-70590095D01*
X123642190Y-70637714D01*
X123594571Y-70685333D01*
X123546952Y-70780571D01*
%TO.C,R10*%
X206680380Y-119646857D02*
X206204190Y-119980190D01*
X206680380Y-120218285D02*
X205680380Y-120218285D01*
X205680380Y-119837333D01*
X205728000Y-119742095D01*
X205775619Y-119694476D01*
X205870857Y-119646857D01*
X206013714Y-119646857D01*
X206108952Y-119694476D01*
X206156571Y-119742095D01*
X206204190Y-119837333D01*
X206204190Y-120218285D01*
X206680380Y-118694476D02*
X206680380Y-119265904D01*
X206680380Y-118980190D02*
X205680380Y-118980190D01*
X205823238Y-119075428D01*
X205918476Y-119170666D01*
X205966095Y-119265904D01*
X205680380Y-118075428D02*
X205680380Y-117980190D01*
X205728000Y-117884952D01*
X205775619Y-117837333D01*
X205870857Y-117789714D01*
X206061333Y-117742095D01*
X206299428Y-117742095D01*
X206489904Y-117789714D01*
X206585142Y-117837333D01*
X206632761Y-117884952D01*
X206680380Y-117980190D01*
X206680380Y-118075428D01*
X206632761Y-118170666D01*
X206585142Y-118218285D01*
X206489904Y-118265904D01*
X206299428Y-118313523D01*
X206061333Y-118313523D01*
X205870857Y-118265904D01*
X205775619Y-118218285D01*
X205728000Y-118170666D01*
X205680380Y-118075428D01*
%TO.C,R19*%
X122203507Y-114788745D02*
X121870174Y-114312555D01*
X121632079Y-114788745D02*
X121632079Y-113788745D01*
X122013031Y-113788745D01*
X122108269Y-113836365D01*
X122155888Y-113883984D01*
X122203507Y-113979222D01*
X122203507Y-114122079D01*
X122155888Y-114217317D01*
X122108269Y-114264936D01*
X122013031Y-114312555D01*
X121632079Y-114312555D01*
X123155888Y-114788745D02*
X122584460Y-114788745D01*
X122870174Y-114788745D02*
X122870174Y-113788745D01*
X122774936Y-113931603D01*
X122679698Y-114026841D01*
X122584460Y-114074460D01*
X123632079Y-114788745D02*
X123822555Y-114788745D01*
X123917793Y-114741126D01*
X123965412Y-114693507D01*
X124060650Y-114550650D01*
X124108269Y-114360174D01*
X124108269Y-113979222D01*
X124060650Y-113883984D01*
X124013031Y-113836365D01*
X123917793Y-113788745D01*
X123727317Y-113788745D01*
X123632079Y-113836365D01*
X123584460Y-113883984D01*
X123536841Y-113979222D01*
X123536841Y-114217317D01*
X123584460Y-114312555D01*
X123632079Y-114360174D01*
X123727317Y-114407793D01*
X123917793Y-114407793D01*
X124013031Y-114360174D01*
X124060650Y-114312555D01*
X124108269Y-114217317D01*
%TO.C,Q1*%
X124918761Y-41781619D02*
X124823523Y-41734000D01*
X124728285Y-41638761D01*
X124585428Y-41495904D01*
X124490190Y-41448285D01*
X124394952Y-41448285D01*
X124442571Y-41686380D02*
X124347333Y-41638761D01*
X124252095Y-41543523D01*
X124204476Y-41353047D01*
X124204476Y-41019714D01*
X124252095Y-40829238D01*
X124347333Y-40734000D01*
X124442571Y-40686380D01*
X124633047Y-40686380D01*
X124728285Y-40734000D01*
X124823523Y-40829238D01*
X124871142Y-41019714D01*
X124871142Y-41353047D01*
X124823523Y-41543523D01*
X124728285Y-41638761D01*
X124633047Y-41686380D01*
X124442571Y-41686380D01*
X125823523Y-41686380D02*
X125252095Y-41686380D01*
X125537809Y-41686380D02*
X125537809Y-40686380D01*
X125442571Y-40829238D01*
X125347333Y-40924476D01*
X125252095Y-40972095D01*
%TO.C,R14*%
X129288380Y-103080857D02*
X128812190Y-103414190D01*
X129288380Y-103652285D02*
X128288380Y-103652285D01*
X128288380Y-103271333D01*
X128336000Y-103176095D01*
X128383619Y-103128476D01*
X128478857Y-103080857D01*
X128621714Y-103080857D01*
X128716952Y-103128476D01*
X128764571Y-103176095D01*
X128812190Y-103271333D01*
X128812190Y-103652285D01*
X129288380Y-102128476D02*
X129288380Y-102699904D01*
X129288380Y-102414190D02*
X128288380Y-102414190D01*
X128431238Y-102509428D01*
X128526476Y-102604666D01*
X128574095Y-102699904D01*
X128621714Y-101271333D02*
X129288380Y-101271333D01*
X128240761Y-101509428D02*
X128955047Y-101747523D01*
X128955047Y-101128476D01*
%TO.C,R11*%
X193240380Y-42992857D02*
X192764190Y-43326190D01*
X193240380Y-43564285D02*
X192240380Y-43564285D01*
X192240380Y-43183333D01*
X192288000Y-43088095D01*
X192335619Y-43040476D01*
X192430857Y-42992857D01*
X192573714Y-42992857D01*
X192668952Y-43040476D01*
X192716571Y-43088095D01*
X192764190Y-43183333D01*
X192764190Y-43564285D01*
X193240380Y-42040476D02*
X193240380Y-42611904D01*
X193240380Y-42326190D02*
X192240380Y-42326190D01*
X192383238Y-42421428D01*
X192478476Y-42516666D01*
X192526095Y-42611904D01*
X193240380Y-41088095D02*
X193240380Y-41659523D01*
X193240380Y-41373809D02*
X192240380Y-41373809D01*
X192383238Y-41469047D01*
X192478476Y-41564285D01*
X192526095Y-41659523D01*
%TO.C,D1*%
X126642904Y-125885015D02*
X126642904Y-124885015D01*
X126881000Y-124885015D01*
X127023857Y-124932635D01*
X127119095Y-125027873D01*
X127166714Y-125123111D01*
X127214333Y-125313587D01*
X127214333Y-125456444D01*
X127166714Y-125646920D01*
X127119095Y-125742158D01*
X127023857Y-125837396D01*
X126881000Y-125885015D01*
X126642904Y-125885015D01*
X128166714Y-125885015D02*
X127595285Y-125885015D01*
X127881000Y-125885015D02*
X127881000Y-124885015D01*
X127785761Y-125027873D01*
X127690523Y-125123111D01*
X127595285Y-125170730D01*
X127037904Y-121748666D02*
X127514095Y-121748666D01*
X126942666Y-122034380D02*
X127276000Y-121034380D01*
X127609333Y-122034380D01*
%TO.C,R3*%
X145542380Y-66986666D02*
X145066190Y-67320000D01*
X145542380Y-67558095D02*
X144542380Y-67558095D01*
X144542380Y-67177142D01*
X144590000Y-67081904D01*
X144637619Y-67034285D01*
X144732857Y-66986666D01*
X144875714Y-66986666D01*
X144970952Y-67034285D01*
X145018571Y-67081904D01*
X145066190Y-67177142D01*
X145066190Y-67558095D01*
X144542380Y-66653333D02*
X144542380Y-66034285D01*
X144923333Y-66367619D01*
X144923333Y-66224761D01*
X144970952Y-66129523D01*
X145018571Y-66081904D01*
X145113809Y-66034285D01*
X145351904Y-66034285D01*
X145447142Y-66081904D01*
X145494761Y-66129523D01*
X145542380Y-66224761D01*
X145542380Y-66510476D01*
X145494761Y-66605714D01*
X145447142Y-66653333D01*
%TO.C,Q5*%
X200512761Y-35655619D02*
X200417523Y-35608000D01*
X200322285Y-35512761D01*
X200179428Y-35369904D01*
X200084190Y-35322285D01*
X199988952Y-35322285D01*
X200036571Y-35560380D02*
X199941333Y-35512761D01*
X199846095Y-35417523D01*
X199798476Y-35227047D01*
X199798476Y-34893714D01*
X199846095Y-34703238D01*
X199941333Y-34608000D01*
X200036571Y-34560380D01*
X200227047Y-34560380D01*
X200322285Y-34608000D01*
X200417523Y-34703238D01*
X200465142Y-34893714D01*
X200465142Y-35227047D01*
X200417523Y-35417523D01*
X200322285Y-35512761D01*
X200227047Y-35560380D01*
X200036571Y-35560380D01*
X201369904Y-34560380D02*
X200893714Y-34560380D01*
X200846095Y-35036571D01*
X200893714Y-34988952D01*
X200988952Y-34941333D01*
X201227047Y-34941333D01*
X201322285Y-34988952D01*
X201369904Y-35036571D01*
X201417523Y-35131809D01*
X201417523Y-35369904D01*
X201369904Y-35465142D01*
X201322285Y-35512761D01*
X201227047Y-35560380D01*
X200988952Y-35560380D01*
X200893714Y-35512761D01*
X200846095Y-35465142D01*
%TO.C,R8*%
X172861046Y-42516666D02*
X172384856Y-42850000D01*
X172861046Y-43088095D02*
X171861046Y-43088095D01*
X171861046Y-42707142D01*
X171908666Y-42611904D01*
X171956285Y-42564285D01*
X172051523Y-42516666D01*
X172194380Y-42516666D01*
X172289618Y-42564285D01*
X172337237Y-42611904D01*
X172384856Y-42707142D01*
X172384856Y-43088095D01*
X172289618Y-41945238D02*
X172241999Y-42040476D01*
X172194380Y-42088095D01*
X172099142Y-42135714D01*
X172051523Y-42135714D01*
X171956285Y-42088095D01*
X171908666Y-42040476D01*
X171861046Y-41945238D01*
X171861046Y-41754761D01*
X171908666Y-41659523D01*
X171956285Y-41611904D01*
X172051523Y-41564285D01*
X172099142Y-41564285D01*
X172194380Y-41611904D01*
X172241999Y-41659523D01*
X172289618Y-41754761D01*
X172289618Y-41945238D01*
X172337237Y-42040476D01*
X172384856Y-42088095D01*
X172480094Y-42135714D01*
X172670570Y-42135714D01*
X172765808Y-42088095D01*
X172813427Y-42040476D01*
X172861046Y-41945238D01*
X172861046Y-41754761D01*
X172813427Y-41659523D01*
X172765808Y-41611904D01*
X172670570Y-41564285D01*
X172480094Y-41564285D01*
X172384856Y-41611904D01*
X172337237Y-41659523D01*
X172289618Y-41754761D01*
%TO.C,P3*%
X221888358Y-61250855D02*
X220886319Y-61250855D01*
X220886319Y-60869126D01*
X220934035Y-60773693D01*
X220981751Y-60725977D01*
X221077183Y-60678261D01*
X221220332Y-60678261D01*
X221315764Y-60725977D01*
X221363480Y-60773693D01*
X221411196Y-60869126D01*
X221411196Y-61250855D01*
X220886319Y-60344248D02*
X220886319Y-59723938D01*
X221268048Y-60057951D01*
X221268048Y-59914803D01*
X221315764Y-59819370D01*
X221363480Y-59771654D01*
X221458913Y-59723938D01*
X221697493Y-59723938D01*
X221792926Y-59771654D01*
X221840642Y-59819370D01*
X221888358Y-59914803D01*
X221888358Y-60201100D01*
X221840642Y-60296532D01*
X221792926Y-60344248D01*
%TO.C,R15*%
X117644380Y-103080857D02*
X117168190Y-103414190D01*
X117644380Y-103652285D02*
X116644380Y-103652285D01*
X116644380Y-103271333D01*
X116692000Y-103176095D01*
X116739619Y-103128476D01*
X116834857Y-103080857D01*
X116977714Y-103080857D01*
X117072952Y-103128476D01*
X117120571Y-103176095D01*
X117168190Y-103271333D01*
X117168190Y-103652285D01*
X117644380Y-102128476D02*
X117644380Y-102699904D01*
X117644380Y-102414190D02*
X116644380Y-102414190D01*
X116787238Y-102509428D01*
X116882476Y-102604666D01*
X116930095Y-102699904D01*
X116644380Y-101223714D02*
X116644380Y-101699904D01*
X117120571Y-101747523D01*
X117072952Y-101699904D01*
X117025333Y-101604666D01*
X117025333Y-101366571D01*
X117072952Y-101271333D01*
X117120571Y-101223714D01*
X117215809Y-101176095D01*
X117453904Y-101176095D01*
X117549142Y-101223714D01*
X117596761Y-101271333D01*
X117644380Y-101366571D01*
X117644380Y-101604666D01*
X117596761Y-101699904D01*
X117549142Y-101747523D01*
D11*
%TO.C,J1*%
X108966000Y-82490000D02*
X110296000Y-82490000D01*
X110296000Y-82490000D02*
X110296000Y-83820000D01*
X107636000Y-85090000D02*
X107636000Y-123250000D01*
X110296000Y-85090000D02*
X110296000Y-123250000D01*
X107636000Y-85090000D02*
X110296000Y-85090000D01*
X107636000Y-123250000D02*
X110296000Y-123250000D01*
%TO.C,J3*%
X116166000Y-82490000D02*
X116166000Y-83820000D01*
X113506000Y-85090000D02*
X116166000Y-85090000D01*
X113506000Y-85090000D02*
X113506000Y-108010000D01*
X113506000Y-108010000D02*
X116166000Y-108010000D01*
X114836000Y-82490000D02*
X116166000Y-82490000D01*
X116166000Y-85090000D02*
X116166000Y-108010000D01*
%TO.C,R16*%
X125096000Y-90722000D02*
X127836000Y-90722000D01*
X127836000Y-90722000D02*
X127836000Y-84182000D01*
X127836000Y-84182000D02*
X125096000Y-84182000D01*
X126466000Y-83412000D02*
X126466000Y-84182000D01*
X126466000Y-91492000D02*
X126466000Y-90722000D01*
X125096000Y-84182000D02*
X125096000Y-90722000D01*
%TO.C,C1*%
X121132000Y-30213000D02*
X116612000Y-30213000D01*
X121132000Y-38448000D02*
X121132000Y-30213000D01*
X116612000Y-30213000D02*
X116612000Y-38448000D01*
D12*
%TO.C,P4*%
X212028000Y-65734000D02*
X219228000Y-65734000D01*
X212028000Y-75894000D02*
X212028000Y-65734000D01*
X220228000Y-75894000D02*
X219228000Y-75894000D01*
X219228000Y-65734000D02*
X220228000Y-65734000D01*
X219228000Y-75894000D02*
X219228000Y-65734000D01*
X219228000Y-75894000D02*
X212028000Y-75894000D01*
X220228000Y-65734000D02*
X220228000Y-75894000D01*
D11*
%TO.C,F1*%
X210156000Y-133080000D02*
X220456000Y-133080000D01*
X220456000Y-133080000D02*
X220456000Y-83080000D01*
X220456000Y-83080000D02*
X210156000Y-83080000D01*
X210156000Y-83080000D02*
X210156000Y-133080000D01*
%TO.C,Q3*%
X167919333Y-27217000D02*
X167919333Y-32488000D01*
X151779333Y-32488000D02*
X167919333Y-32488000D01*
X151779333Y-27217000D02*
X167919333Y-27217000D01*
X151779333Y-27217000D02*
X151779333Y-32488000D01*
X158045333Y-27217000D02*
X158045333Y-32488000D01*
X161654333Y-27217000D02*
X161654333Y-32488000D01*
%TO.C,C3*%
X123569752Y-62886000D02*
X122147248Y-62886000D01*
X123569752Y-61066000D02*
X122147248Y-61066000D01*
%TO.C,R2*%
X135390000Y-39080000D02*
X132650000Y-39080000D01*
X135390000Y-45620000D02*
X135390000Y-39080000D01*
X132650000Y-39080000D02*
X132650000Y-45620000D01*
X134020000Y-46390000D02*
X134020000Y-45620000D01*
X132650000Y-45620000D02*
X135390000Y-45620000D01*
X134020000Y-38310000D02*
X134020000Y-39080000D01*
%TO.C,R6*%
X155229333Y-54200000D02*
X155229333Y-79440000D01*
X155229333Y-79440000D02*
X158409333Y-79440000D01*
X164469333Y-54200000D02*
X164469333Y-79440000D01*
X161289333Y-54200000D02*
X164469333Y-54200000D01*
X158409333Y-54200000D02*
X155229333Y-54200000D01*
X164469333Y-79440000D02*
X161289333Y-79440000D01*
D12*
%TO.C,P2*%
X219228000Y-55574000D02*
X212028000Y-55574000D01*
X212028000Y-45414000D02*
X219228000Y-45414000D01*
X219228000Y-45414000D02*
X220228000Y-45414000D01*
X220228000Y-55574000D02*
X219228000Y-55574000D01*
X212028000Y-55574000D02*
X212028000Y-45414000D01*
X220228000Y-45414000D02*
X220228000Y-55574000D01*
X219228000Y-55574000D02*
X219228000Y-45414000D01*
D11*
%TO.C,R9*%
X184848666Y-79440000D02*
X181668666Y-79440000D01*
X175608666Y-54200000D02*
X175608666Y-79440000D01*
X178788666Y-54200000D02*
X175608666Y-54200000D01*
X184848666Y-54200000D02*
X184848666Y-79440000D01*
X175608666Y-79440000D02*
X178788666Y-79440000D01*
X181668666Y-54200000D02*
X184848666Y-54200000D01*
%TO.C,R20*%
X127466365Y-126690365D02*
X118226365Y-126690365D01*
X129426365Y-128410365D02*
X127466365Y-128410365D01*
X118226365Y-126690365D02*
X118226365Y-130130365D01*
X116266365Y-128410365D02*
X118226365Y-128410365D01*
X118226365Y-130130365D02*
X127466365Y-130130365D01*
X127466365Y-130130365D02*
X127466365Y-126690365D01*
%TO.C,D2*%
X118220635Y-122682000D02*
X118880000Y-122682000D01*
X118220635Y-122682000D02*
G75*
G03*
X118220635Y-122682000I-1750635J0D01*
G01*
%TO.C,R12*%
X205228000Y-54200000D02*
X205228000Y-79440000D01*
X195988000Y-54200000D02*
X195988000Y-79440000D01*
X195988000Y-79440000D02*
X199168000Y-79440000D01*
X205228000Y-79440000D02*
X202048000Y-79440000D01*
X202048000Y-54200000D02*
X205228000Y-54200000D01*
X199168000Y-54200000D02*
X195988000Y-54200000D01*
%TO.C,Q2*%
X141275000Y-27217000D02*
X141275000Y-32488000D01*
X147540000Y-27217000D02*
X147540000Y-32488000D01*
X131400000Y-32488000D02*
X147540000Y-32488000D01*
X137666000Y-27217000D02*
X137666000Y-32488000D01*
X131400000Y-27217000D02*
X147540000Y-27217000D01*
X131400000Y-27217000D02*
X131400000Y-32488000D01*
%TO.C,J4*%
X104448000Y-56724000D02*
X105778000Y-56724000D01*
X103118000Y-59324000D02*
X105778000Y-59324000D01*
X103118000Y-77164000D02*
X105778000Y-77164000D01*
X105778000Y-59324000D02*
X105778000Y-77164000D01*
X103118000Y-59324000D02*
X103118000Y-77164000D01*
X105778000Y-56724000D02*
X105778000Y-58054000D01*
%TO.C,Q4*%
X172158666Y-27217000D02*
X172158666Y-32488000D01*
X172158666Y-27217000D02*
X188298666Y-27217000D01*
X188298666Y-27217000D02*
X188298666Y-32488000D01*
X178424666Y-27217000D02*
X178424666Y-32488000D01*
X182033666Y-27217000D02*
X182033666Y-32488000D01*
X172158666Y-32488000D02*
X188298666Y-32488000D01*
%TO.C,U1*%
X108728000Y-42358000D02*
X107478000Y-42358000D01*
X111978000Y-42358000D02*
X110728000Y-42358000D01*
X104478000Y-52698000D02*
X114978000Y-52698000D01*
X114978000Y-52698000D02*
X114978000Y-42298000D01*
X107478000Y-52638000D02*
X111978000Y-52638000D01*
X111978000Y-52638000D02*
X111978000Y-42358000D01*
X107478000Y-42358000D02*
X107478000Y-52638000D01*
X114978000Y-42298000D02*
X104478000Y-42298000D01*
X104478000Y-42298000D02*
X104478000Y-52698000D01*
X108728000Y-42358000D02*
G75*
G03*
X110728000Y-42358000I1000000J0D01*
G01*
%TO.C,R5*%
X154399333Y-46390000D02*
X154399333Y-45620000D01*
X153029333Y-39080000D02*
X153029333Y-45620000D01*
X155769333Y-39080000D02*
X153029333Y-39080000D01*
X153029333Y-45620000D02*
X155769333Y-45620000D01*
X154399333Y-38310000D02*
X154399333Y-39080000D01*
X155769333Y-45620000D02*
X155769333Y-39080000D01*
%TO.C,R7*%
X139470000Y-89964000D02*
X139470000Y-93884000D01*
X134850000Y-93884000D02*
X134850000Y-144124000D01*
X134850000Y-144124000D02*
X144090000Y-144124000D01*
X144090000Y-93884000D02*
X134850000Y-93884000D01*
X144090000Y-144124000D02*
X144090000Y-93884000D01*
X139470000Y-148044000D02*
X139470000Y-144124000D01*
%TO.C,R4*%
X184848666Y-93884000D02*
X175608666Y-93884000D01*
X180228666Y-89964000D02*
X180228666Y-93884000D01*
X175608666Y-93884000D02*
X175608666Y-144124000D01*
X184848666Y-144124000D02*
X184848666Y-93884000D01*
X180228666Y-148044000D02*
X180228666Y-144124000D01*
X175608666Y-144124000D02*
X184848666Y-144124000D01*
%TO.C,R17*%
X118192000Y-90722000D02*
X120932000Y-90722000D01*
X119562000Y-91492000D02*
X119562000Y-90722000D01*
X120932000Y-84182000D02*
X118192000Y-84182000D01*
X119562000Y-83412000D02*
X119562000Y-84182000D01*
X118192000Y-84182000D02*
X118192000Y-90722000D01*
X120932000Y-90722000D02*
X120932000Y-84182000D01*
%TO.C,R21*%
X129254000Y-55526000D02*
X122714000Y-55526000D01*
X122714000Y-58266000D02*
X129254000Y-58266000D01*
X121944000Y-56896000D02*
X122714000Y-56896000D01*
X130024000Y-56896000D02*
X129254000Y-56896000D01*
X122714000Y-55526000D02*
X122714000Y-58266000D01*
X129254000Y-58266000D02*
X129254000Y-55526000D01*
%TO.C,J2*%
X105702000Y-100330000D02*
X103042000Y-100330000D01*
X104372000Y-102930000D02*
X103042000Y-102930000D01*
X103042000Y-102930000D02*
X103042000Y-101600000D01*
X103042000Y-100330000D02*
X103042000Y-82490000D01*
X105702000Y-100330000D02*
X105702000Y-82490000D01*
X105702000Y-82490000D02*
X103042000Y-82490000D01*
%TO.C,R13*%
X155229333Y-144124000D02*
X164469333Y-144124000D01*
X159849333Y-148044000D02*
X159849333Y-144124000D01*
X164469333Y-93884000D02*
X155229333Y-93884000D01*
X164469333Y-144124000D02*
X164469333Y-93884000D01*
X159849333Y-89964000D02*
X159849333Y-93884000D01*
X155229333Y-93884000D02*
X155229333Y-144124000D01*
%TO.C,R1*%
X122714000Y-51990000D02*
X122714000Y-54730000D01*
X121944000Y-53360000D02*
X122714000Y-53360000D01*
X122714000Y-54730000D02*
X129254000Y-54730000D01*
X129254000Y-54730000D02*
X129254000Y-51990000D01*
X130024000Y-53360000D02*
X129254000Y-53360000D01*
X129254000Y-51990000D02*
X122714000Y-51990000D01*
D12*
%TO.C,P1*%
X104824000Y-39318000D02*
X103824000Y-39318000D01*
X103824000Y-29158000D02*
X104824000Y-29158000D01*
X103824000Y-39318000D02*
X103824000Y-29158000D01*
X104824000Y-29158000D02*
X112024000Y-29158000D01*
X104824000Y-29158000D02*
X104824000Y-39318000D01*
X112024000Y-39318000D02*
X104824000Y-39318000D01*
X112024000Y-29158000D02*
X112024000Y-39318000D01*
D11*
%TO.C,C2*%
X126342000Y-32449248D02*
X126342000Y-33871752D01*
X124522000Y-32449248D02*
X124522000Y-33871752D01*
%TO.C,R18*%
X119926000Y-68582000D02*
X119926000Y-75122000D01*
X119926000Y-75122000D02*
X122666000Y-75122000D01*
X122666000Y-68582000D02*
X119926000Y-68582000D01*
X122666000Y-75122000D02*
X122666000Y-68582000D01*
X121296000Y-67812000D02*
X121296000Y-68582000D01*
X121296000Y-75892000D02*
X121296000Y-75122000D01*
%TO.C,R10*%
X200608000Y-148044000D02*
X200608000Y-144124000D01*
X195988000Y-144124000D02*
X205228000Y-144124000D01*
X205228000Y-93884000D02*
X195988000Y-93884000D01*
X200608000Y-89964000D02*
X200608000Y-93884000D01*
X205228000Y-144124000D02*
X205228000Y-93884000D01*
X195988000Y-93884000D02*
X195988000Y-144124000D01*
%TO.C,R19*%
X118226365Y-115336365D02*
X118226365Y-118776365D01*
X127466365Y-115336365D02*
X118226365Y-115336365D01*
X116266365Y-117056365D02*
X118226365Y-117056365D01*
X118226365Y-118776365D02*
X127466365Y-118776365D01*
X129426365Y-117056365D02*
X127466365Y-117056365D01*
X127466365Y-118776365D02*
X127466365Y-115336365D01*
%TO.C,Q1*%
X127664000Y-49974000D02*
X127664000Y-42234000D01*
X124014000Y-42234000D02*
X122364000Y-42234000D01*
X130154000Y-50034000D02*
X130154000Y-42174000D01*
X127664000Y-42234000D02*
X126014000Y-42234000D01*
X130154000Y-42174000D02*
X119874000Y-42174000D01*
X122364000Y-42234000D02*
X122364000Y-49974000D01*
X122364000Y-49974000D02*
X127664000Y-49974000D01*
X119874000Y-50034000D02*
X130154000Y-50034000D01*
X119874000Y-42174000D02*
X119874000Y-50034000D01*
X124014000Y-42234000D02*
G75*
G03*
X126014000Y-42234000I1000000J0D01*
G01*
%TO.C,R14*%
X126466000Y-106478000D02*
X126466000Y-105708000D01*
X125096000Y-99168000D02*
X125096000Y-105708000D01*
X125096000Y-105708000D02*
X127836000Y-105708000D01*
X126466000Y-98398000D02*
X126466000Y-99168000D01*
X127836000Y-99168000D02*
X125096000Y-99168000D01*
X127836000Y-105708000D02*
X127836000Y-99168000D01*
%TO.C,R11*%
X195158000Y-38310000D02*
X195158000Y-39080000D01*
X195158000Y-46390000D02*
X195158000Y-45620000D01*
X193788000Y-39080000D02*
X193788000Y-45620000D01*
X196528000Y-39080000D02*
X193788000Y-39080000D01*
X193788000Y-45620000D02*
X196528000Y-45620000D01*
X196528000Y-45620000D02*
X196528000Y-39080000D01*
%TO.C,D1*%
X127535365Y-122682000D02*
X126876000Y-122682000D01*
X131036635Y-122682000D02*
G75*
G03*
X131036635Y-122682000I-1750635J0D01*
G01*
%TO.C,R3*%
X144090000Y-79440000D02*
X140910000Y-79440000D01*
X144090000Y-54200000D02*
X144090000Y-79440000D01*
X140910000Y-54200000D02*
X144090000Y-54200000D01*
X134850000Y-54200000D02*
X134850000Y-79440000D01*
X138030000Y-54200000D02*
X134850000Y-54200000D01*
X134850000Y-79440000D02*
X138030000Y-79440000D01*
%TO.C,Q5*%
X192538000Y-32488000D02*
X208678000Y-32488000D01*
X198804000Y-27217000D02*
X198804000Y-32488000D01*
X192538000Y-27217000D02*
X192538000Y-32488000D01*
X202413000Y-27217000D02*
X202413000Y-32488000D01*
X208678000Y-27217000D02*
X208678000Y-32488000D01*
X192538000Y-27217000D02*
X208678000Y-27217000D01*
%TO.C,R8*%
X174778666Y-38310000D02*
X174778666Y-39080000D01*
X173408666Y-39080000D02*
X173408666Y-45620000D01*
X176148666Y-45620000D02*
X176148666Y-39080000D01*
X174778666Y-46390000D02*
X174778666Y-45620000D01*
X176148666Y-39080000D02*
X173408666Y-39080000D01*
X173408666Y-45620000D02*
X176148666Y-45620000D01*
D12*
%TO.C,P3*%
X212028000Y-65734000D02*
X212028000Y-55574000D01*
X220228000Y-65734000D02*
X219228000Y-65734000D01*
X219228000Y-65734000D02*
X212028000Y-65734000D01*
X219228000Y-65734000D02*
X219228000Y-55574000D01*
X220228000Y-55574000D02*
X220228000Y-65734000D01*
X212028000Y-55574000D02*
X219228000Y-55574000D01*
X219228000Y-55574000D02*
X220228000Y-55574000D01*
D11*
%TO.C,R15*%
X118192000Y-99168000D02*
X118192000Y-105708000D01*
X119562000Y-98398000D02*
X119562000Y-99168000D01*
X119562000Y-106478000D02*
X119562000Y-105708000D01*
X120932000Y-99168000D02*
X118192000Y-99168000D01*
X120932000Y-105708000D02*
X120932000Y-99168000D01*
X118192000Y-105708000D02*
X120932000Y-105708000D01*
%TD*%
%LPC*%
D13*
%TO.C,J1*%
X108966000Y-83820000D03*
D14*
X108966000Y-86360000D03*
X108966000Y-88900000D03*
X108966000Y-91440000D03*
X108966000Y-93980000D03*
X108966000Y-96520000D03*
X108966000Y-99060000D03*
X108966000Y-101600000D03*
X108966000Y-104140000D03*
X108966000Y-106680000D03*
X108966000Y-109220000D03*
X108966000Y-111760000D03*
X108966000Y-114300000D03*
X108966000Y-116840000D03*
X108966000Y-119380000D03*
X108966000Y-121920000D03*
%TD*%
D13*
%TO.C,J3*%
X114836000Y-83820000D03*
D14*
X114836000Y-86360000D03*
X114836000Y-88900000D03*
X114836000Y-91440000D03*
X114836000Y-93980000D03*
X114836000Y-96520000D03*
X114836000Y-99060000D03*
X114836000Y-101600000D03*
X114836000Y-104140000D03*
X114836000Y-106680000D03*
%TD*%
D15*
%TO.C,R16*%
X126466000Y-82372000D03*
D16*
X126466000Y-92532000D03*
%TD*%
D17*
%TO.C,C1*%
X118872000Y-31598000D03*
X118872000Y-37998000D03*
%TD*%
D18*
%TO.C,P4*%
X216128000Y-73354000D03*
D19*
X216128000Y-68274000D03*
%TD*%
D20*
%TO.C,F1*%
X215306000Y-123080000D03*
D21*
X215306000Y-130580000D03*
X215306000Y-115580000D03*
X215306000Y-85580000D03*
D20*
X215306000Y-93080000D03*
D21*
X215306000Y-100580000D03*
%TD*%
D22*
%TO.C,Q3*%
X154399333Y-29668000D03*
D23*
X159849333Y-29668000D03*
X165299333Y-29668000D03*
%TD*%
D24*
%TO.C,C3*%
X124421000Y-61976000D03*
X121296000Y-61976000D03*
%TD*%
D15*
%TO.C,R2*%
X134020000Y-47430000D03*
D16*
X134020000Y-37270000D03*
%TD*%
D25*
%TO.C,R6*%
X159849333Y-52850000D03*
D26*
X159849333Y-80790000D03*
%TD*%
D18*
%TO.C,P2*%
X216128000Y-53034000D03*
D19*
X216128000Y-47954000D03*
%TD*%
D25*
%TO.C,R9*%
X180228666Y-52850000D03*
D26*
X180228666Y-80790000D03*
%TD*%
D15*
%TO.C,R20*%
X130466365Y-128410365D03*
D16*
X115226365Y-128410365D03*
%TD*%
D27*
%TO.C,D2*%
X116470000Y-122682000D03*
D28*
X120280000Y-122682000D03*
%TD*%
D25*
%TO.C,R12*%
X200608000Y-52850000D03*
D26*
X200608000Y-80790000D03*
%TD*%
D22*
%TO.C,Q2*%
X134020000Y-29668000D03*
D23*
X139470000Y-29668000D03*
X144920000Y-29668000D03*
%TD*%
D13*
%TO.C,J4*%
X104448000Y-58054000D03*
D14*
X104448000Y-60594000D03*
X104448000Y-63134000D03*
X104448000Y-65674000D03*
X104448000Y-68214000D03*
X104448000Y-70754000D03*
X104448000Y-73294000D03*
X104448000Y-75834000D03*
%TD*%
D22*
%TO.C,Q4*%
X174778666Y-29668000D03*
D23*
X180228666Y-29668000D03*
X185678666Y-29668000D03*
%TD*%
D29*
%TO.C,U1*%
X105918000Y-43688000D03*
D30*
X105918000Y-46228000D03*
X105918000Y-48768000D03*
X105918000Y-51308000D03*
X113538000Y-51308000D03*
X113538000Y-48768000D03*
X113538000Y-46228000D03*
X113538000Y-43688000D03*
%TD*%
D15*
%TO.C,R5*%
X154399333Y-47430000D03*
D16*
X154399333Y-37270000D03*
%TD*%
D25*
%TO.C,R7*%
X139470000Y-88524000D03*
D26*
X139470000Y-149484000D03*
%TD*%
D25*
%TO.C,R4*%
X180228666Y-88524000D03*
D26*
X180228666Y-149484000D03*
%TD*%
D15*
%TO.C,R17*%
X119562000Y-92532000D03*
D16*
X119562000Y-82372000D03*
%TD*%
D15*
%TO.C,R21*%
X120904000Y-56896000D03*
D16*
X131064000Y-56896000D03*
%TD*%
D13*
%TO.C,J2*%
X104372000Y-101600000D03*
D14*
X104372000Y-99060000D03*
X104372000Y-96520000D03*
X104372000Y-93980000D03*
X104372000Y-91440000D03*
X104372000Y-88900000D03*
X104372000Y-86360000D03*
X104372000Y-83820000D03*
%TD*%
D25*
%TO.C,R13*%
X159849333Y-88524000D03*
D26*
X159849333Y-149484000D03*
%TD*%
D15*
%TO.C,R1*%
X131064000Y-53360000D03*
D16*
X120904000Y-53360000D03*
%TD*%
D31*
%TO.C,P1*%
X107924000Y-31698000D03*
D32*
X107924000Y-36778000D03*
%TD*%
D33*
%TO.C,C2*%
X125432000Y-31598000D03*
X125432000Y-34723000D03*
%TD*%
D15*
%TO.C,R18*%
X121296000Y-66772000D03*
D16*
X121296000Y-76932000D03*
%TD*%
D25*
%TO.C,R10*%
X200608000Y-88524000D03*
D26*
X200608000Y-149484000D03*
%TD*%
D15*
%TO.C,R19*%
X115226365Y-117056365D03*
D16*
X130466365Y-117056365D03*
%TD*%
D34*
%TO.C,Q1*%
X121204000Y-43564000D03*
D16*
X121204000Y-46104000D03*
X121204000Y-48644000D03*
X128824000Y-48644000D03*
X128824000Y-46104000D03*
X128824000Y-43564000D03*
%TD*%
D15*
%TO.C,R14*%
X126466000Y-97358000D03*
D16*
X126466000Y-107518000D03*
%TD*%
D15*
%TO.C,R11*%
X195158000Y-47430000D03*
D16*
X195158000Y-37270000D03*
%TD*%
D27*
%TO.C,D1*%
X129286000Y-122682000D03*
D28*
X125476000Y-122682000D03*
%TD*%
D25*
%TO.C,R3*%
X139470000Y-52850000D03*
D26*
X139470000Y-80790000D03*
%TD*%
D22*
%TO.C,Q5*%
X195158000Y-29668000D03*
D23*
X200608000Y-29668000D03*
X206058000Y-29668000D03*
%TD*%
D15*
%TO.C,R8*%
X174778666Y-47430000D03*
D16*
X174778666Y-37270000D03*
%TD*%
D18*
%TO.C,P3*%
X216128000Y-63194000D03*
D19*
X216128000Y-58114000D03*
%TD*%
D15*
%TO.C,R15*%
X119562000Y-107518000D03*
D16*
X119562000Y-97358000D03*
%TD*%
M02*
